<svg width="500" height="187" viewBox="0 0 500 187" fill="none" xmlns="http://www.w3.org/2000/svg">
<rect x="45.5" y="40.9629" width="409" height="146" rx="30" fill="#604E89"/>
<path d="M93.4348 72.1447H96.4604L102.512 82.3294H102.767L108.818 72.1447H111.844L103.96 84.9714V93.9629H101.318V84.9714L93.4348 72.1447ZM118.845 94.3038C117.368 94.3038 116.072 93.9522 114.957 93.2491C113.849 92.546 112.982 91.5623 112.357 90.2981C111.74 89.0339 111.431 87.5566 111.431 85.8663C111.431 84.1618 111.74 82.6738 112.357 81.4025C112.982 80.1312 113.849 79.144 114.957 78.4409C116.072 77.7377 117.368 77.3862 118.845 77.3862C120.323 77.3862 121.615 77.7377 122.723 78.4409C123.838 79.144 124.705 80.1312 125.323 81.4025C125.948 82.6738 126.26 84.1618 126.26 85.8663C126.26 87.5566 125.948 89.0339 125.323 90.2981C124.705 91.5623 123.838 92.546 122.723 93.2491C121.615 93.9522 120.323 94.3038 118.845 94.3038ZM118.845 92.0453C119.968 92.0453 120.891 91.7576 121.615 91.1824C122.34 90.6071 122.876 89.8507 123.224 88.9132C123.572 87.9757 123.746 86.96 123.746 85.8663C123.746 84.7725 123.572 83.7534 123.224 82.8088C122.876 81.8642 122.34 81.1007 121.615 80.5183C120.891 79.9359 119.968 79.6447 118.845 79.6447C117.723 79.6447 116.8 79.9359 116.075 80.5183C115.351 81.1007 114.815 81.8642 114.467 82.8088C114.119 83.7534 113.945 84.7725 113.945 85.8663C113.945 86.96 114.119 87.9757 114.467 88.9132C114.815 89.8507 115.351 90.6071 116.075 91.1824C116.8 91.7576 117.723 92.0453 118.845 92.0453ZM140.003 87.2725V77.5993H142.517V93.9629H140.003V91.193H139.832C139.449 92.024 138.852 92.7306 138.042 93.313C137.233 93.8883 136.21 94.176 134.974 94.176C133.951 94.176 133.042 93.9522 132.247 93.5048C131.451 93.0502 130.826 92.3684 130.372 91.4593C129.917 90.5431 129.69 89.389 129.69 87.997V77.5993H132.204V87.8265C132.204 89.0197 132.538 89.9714 133.206 90.6816C133.88 91.3919 134.74 91.747 135.784 91.747C136.409 91.747 137.044 91.5872 137.691 91.2676C138.344 90.948 138.891 90.4579 139.331 89.7974C139.779 89.1369 140.003 88.2953 140.003 87.2725ZM154.743 77.5993H157.257V95.1561C157.257 96.1646 157.083 97.0382 156.735 97.7768C156.394 98.5154 155.876 99.0872 155.18 99.492C154.491 99.8968 153.621 100.099 152.57 100.099C152.485 100.099 152.399 100.099 152.314 100.099C152.229 100.099 152.144 100.099 152.059 100.099V97.7555C152.144 97.7555 152.222 97.7555 152.293 97.7555C152.364 97.7555 152.442 97.7555 152.527 97.7555C153.294 97.7555 153.855 97.5282 154.21 97.0737C154.566 96.6262 154.743 95.987 154.743 95.1561V77.5993ZM155.979 74.872C155.489 74.872 155.066 74.7051 154.711 74.3713C154.363 74.0375 154.189 73.6362 154.189 73.1674C154.189 72.6987 154.363 72.2974 154.711 71.9636C155.066 71.6298 155.489 71.4629 155.979 71.4629C156.469 71.4629 156.888 71.6298 157.236 71.9636C157.591 72.2974 157.769 72.6987 157.769 73.1674C157.769 73.6362 157.591 74.0375 157.236 74.3713C156.888 74.7051 156.469 74.872 155.979 74.872ZM171.767 87.2725V77.5993H174.281V93.9629H171.767V91.193H171.596C171.213 92.024 170.616 92.7306 169.807 93.313C168.997 93.8883 167.974 94.176 166.738 94.176C165.716 94.176 164.807 93.9522 164.011 93.5048C163.216 93.0502 162.591 92.3684 162.136 91.4593C161.682 90.5431 161.454 89.389 161.454 87.997V77.5993H163.969V87.8265C163.969 89.0197 164.302 89.9714 164.97 90.6816C165.645 91.3919 166.504 91.747 167.548 91.747C168.173 91.747 168.809 91.5872 169.455 91.2676C170.108 90.948 170.655 90.4579 171.096 89.7974C171.543 89.1369 171.767 88.2953 171.767 87.2725ZM190.069 81.264L187.81 81.9032C187.668 81.5268 187.459 81.161 187.182 80.8059C186.912 80.4437 186.543 80.1454 186.074 79.911C185.605 79.6767 185.005 79.5595 184.273 79.5595C183.272 79.5595 182.437 79.7903 181.77 80.252C181.109 80.7065 180.779 81.2853 180.779 81.9885C180.779 82.6135 181.006 83.1071 181.461 83.4693C181.915 83.8315 182.626 84.1333 183.592 84.3748L186.021 84.9714C187.484 85.3265 188.574 85.8699 189.291 86.6014C190.008 87.3258 190.367 88.2598 190.367 89.4032C190.367 90.3407 190.097 91.1788 189.558 91.9174C189.025 92.6561 188.279 93.2385 187.32 93.6646C186.361 94.0907 185.246 94.3038 183.975 94.3038C182.306 94.3038 180.925 93.9416 179.831 93.2172C178.737 92.4927 178.045 91.4345 177.754 90.0424L180.14 89.4458C180.367 90.3265 180.797 90.987 181.429 91.4274C182.068 91.8677 182.903 92.0879 183.933 92.0879C185.104 92.0879 186.035 91.8393 186.724 91.3422C187.42 90.8379 187.768 90.2342 187.768 89.5311C187.768 88.9629 187.569 88.487 187.171 88.1035C186.773 87.7129 186.163 87.4217 185.339 87.2299L182.611 86.5907C181.113 86.2356 180.012 85.6852 179.309 84.9395C178.613 84.1866 178.265 83.2456 178.265 82.1163C178.265 81.193 178.524 80.3762 179.043 79.666C179.568 78.9558 180.282 78.3983 181.184 77.9934C182.093 77.5886 183.123 77.3862 184.273 77.3862C185.893 77.3862 187.164 77.7413 188.087 78.4515C189.018 79.1618 189.678 80.0993 190.069 81.264ZM200.86 77.5993V79.7299H192.38V77.5993H200.86ZM194.852 73.6788H197.366V89.2754C197.366 89.9856 197.469 90.5183 197.675 90.8734C197.888 91.2214 198.158 91.4558 198.485 91.5765C198.818 91.6902 199.17 91.747 199.539 91.747C199.816 91.747 200.043 91.7328 200.221 91.7044C200.399 91.6689 200.541 91.6404 200.647 91.6191L201.159 93.8777C200.988 93.9416 200.75 94.0055 200.445 94.0694C200.139 94.1404 199.752 94.176 199.284 94.176C198.573 94.176 197.877 94.0233 197.195 93.7179C196.521 93.4125 195.96 92.9473 195.512 92.3223C195.072 91.6973 194.852 90.9089 194.852 89.9572V73.6788ZM218.869 100.44C217.654 100.44 216.61 100.284 215.737 99.9714C214.863 99.666 214.135 99.2612 213.553 98.7569C212.978 98.2598 212.519 97.7271 212.178 97.1589L214.181 95.7527C214.409 96.051 214.696 96.3919 215.044 96.7754C215.392 97.166 215.868 97.5034 216.472 97.7875C217.083 98.0787 217.882 98.2243 218.869 98.2243C220.19 98.2243 221.28 97.9047 222.139 97.2654C222.999 96.6262 223.428 95.6248 223.428 94.2612V90.9373H223.215C223.031 91.2356 222.768 91.6049 222.427 92.0453C222.093 92.4785 221.61 92.8656 220.978 93.2065C220.353 93.5403 219.508 93.7072 218.443 93.7072C217.122 93.7072 215.936 93.3947 214.884 92.7697C213.84 92.1447 213.013 91.2356 212.402 90.0424C211.799 88.8493 211.497 87.4004 211.497 85.6958C211.497 84.0197 211.791 82.5602 212.381 81.3173C212.97 80.0673 213.791 79.1014 214.842 78.4196C215.893 77.7306 217.107 77.3862 218.485 77.3862C219.551 77.3862 220.396 77.5637 221.021 77.9189C221.653 78.2669 222.136 78.6646 222.47 79.112C222.811 79.5524 223.073 79.9146 223.258 80.1987H223.514V77.5993H225.943V94.4316C225.943 95.8379 225.623 96.9814 224.984 97.862C224.352 98.7498 223.5 99.3997 222.427 99.8116C221.362 100.231 220.176 100.44 218.869 100.44ZM218.784 91.4487C219.792 91.4487 220.644 91.2179 221.34 90.7562C222.036 90.2946 222.566 89.6305 222.928 88.764C223.29 87.8975 223.471 86.8606 223.471 85.6532C223.471 84.4743 223.294 83.4338 222.938 82.5318C222.583 81.6298 222.058 80.9231 221.362 80.4118C220.666 79.9004 219.806 79.6447 218.784 79.6447C217.718 79.6447 216.83 79.9146 216.12 80.4544C215.417 80.9941 214.888 81.7186 214.533 82.6277C214.185 83.5368 214.011 84.5453 214.011 85.6532C214.011 86.7896 214.188 87.7946 214.544 88.6681C214.906 89.5346 215.438 90.2164 216.142 90.7136C216.852 91.2037 217.732 91.4487 218.784 91.4487ZM236.785 94.3038C235.307 94.3038 234.011 93.9522 232.896 93.2491C231.788 92.546 230.922 91.5623 230.297 90.2981C229.679 89.0339 229.37 87.5566 229.37 85.8663C229.37 84.1618 229.679 82.6738 230.297 81.4025C230.922 80.1312 231.788 79.144 232.896 78.4409C234.011 77.7377 235.307 77.3862 236.785 77.3862C238.262 77.3862 239.555 77.7377 240.663 78.4409C241.778 79.144 242.644 80.1312 243.262 81.4025C243.887 82.6738 244.199 84.1618 244.199 85.8663C244.199 87.5566 243.887 89.0339 243.262 90.2981C242.644 91.5623 241.778 92.546 240.663 93.2491C239.555 93.9522 238.262 94.3038 236.785 94.3038ZM236.785 92.0453C237.907 92.0453 238.83 91.7576 239.555 91.1824C240.279 90.6071 240.815 89.8507 241.163 88.9132C241.511 87.9757 241.685 86.96 241.685 85.8663C241.685 84.7725 241.511 83.7534 241.163 82.8088C240.815 81.8642 240.279 81.1007 239.555 80.5183C238.83 79.9359 237.907 79.6447 236.785 79.6447C235.663 79.6447 234.739 79.9359 234.015 80.5183C233.29 81.1007 232.754 81.8642 232.406 82.8088C232.058 83.7534 231.884 84.7725 231.884 85.8663C231.884 86.96 232.058 87.9757 232.406 88.9132C232.754 89.8507 233.29 90.6071 234.015 91.1824C234.739 91.7576 235.663 92.0453 236.785 92.0453ZM254.746 77.5993V79.7299H246.266V77.5993H254.746ZM248.737 73.6788H251.252V89.2754C251.252 89.9856 251.354 90.5183 251.56 90.8734C251.774 91.2214 252.043 91.4558 252.37 91.5765C252.704 91.6902 253.055 91.747 253.425 91.747C253.702 91.747 253.929 91.7328 254.107 91.7044C254.284 91.6689 254.426 91.6404 254.533 91.6191L255.044 93.8777C254.874 93.9416 254.636 94.0055 254.33 94.0694C254.025 94.1404 253.638 94.176 253.169 94.176C252.459 94.176 251.763 94.0233 251.081 93.7179C250.406 93.4125 249.845 92.9473 249.398 92.3223C248.957 91.6973 248.737 90.9089 248.737 89.9572V73.6788ZM266.149 100.099V77.5993H268.578V80.1987H268.877C269.061 79.9146 269.317 79.5524 269.644 79.112C269.977 78.6646 270.453 78.2669 271.071 77.9189C271.696 77.5637 272.541 77.3862 273.607 77.3862C274.985 77.3862 276.199 77.7306 277.25 78.4196C278.301 79.1085 279.122 80.085 279.711 81.3493C280.301 82.6135 280.595 84.1049 280.595 85.8237C280.595 87.5566 280.301 89.0588 279.711 90.3301C279.122 91.5943 278.305 92.5744 277.261 93.2704C276.217 93.9593 275.013 94.3038 273.649 94.3038C272.598 94.3038 271.757 94.1298 271.124 93.7818C270.492 93.4267 270.006 93.0254 269.665 92.5779C269.324 92.1234 269.061 91.747 268.877 91.4487H268.664V100.099H266.149ZM268.621 85.7811C268.621 87.0169 268.802 88.1071 269.164 89.0517C269.526 89.9892 270.056 90.7243 270.752 91.2569C271.448 91.7825 272.3 92.0453 273.308 92.0453C274.36 92.0453 275.237 91.7683 275.94 91.2143C276.65 90.6532 277.183 89.9004 277.538 88.9558C277.9 88.0041 278.081 86.9458 278.081 85.7811C278.081 84.6305 277.904 83.5936 277.548 82.6703C277.2 81.7399 276.671 81.0048 275.961 80.465C275.258 79.9181 274.374 79.6447 273.308 79.6447C272.286 79.6447 271.426 79.9039 270.73 80.4224C270.034 80.9338 269.509 81.6511 269.154 82.5744C268.798 83.4906 268.621 84.5595 268.621 85.7811ZM288.838 94.3464C287.801 94.3464 286.86 94.1511 286.015 93.7605C285.17 93.3627 284.498 92.791 284.001 92.0453C283.504 91.2924 283.255 90.3833 283.255 89.318C283.255 88.3805 283.44 87.6206 283.809 87.0382C284.179 86.4487 284.672 85.987 285.29 85.6532C285.908 85.3194 286.59 85.0708 287.336 84.9075C288.089 84.737 288.845 84.6021 289.605 84.5027C290.599 84.3748 291.405 84.2789 292.023 84.215C292.648 84.144 293.103 84.0268 293.387 83.8635C293.678 83.7001 293.824 83.416 293.824 83.0112V82.926C293.824 81.8748 293.536 81.0581 292.961 80.4757C292.393 79.8933 291.53 79.6021 290.372 79.6021C289.172 79.6021 288.231 79.8649 287.549 80.3904C286.867 80.916 286.388 81.4771 286.111 82.0737L283.724 81.2214C284.15 80.2271 284.719 79.4529 285.429 78.899C286.146 78.3379 286.927 77.9473 287.773 77.7271C288.625 77.4998 289.463 77.3862 290.287 77.3862C290.812 77.3862 291.416 77.4501 292.098 77.5779C292.787 77.6987 293.451 77.9508 294.09 78.3343C294.736 78.7179 295.273 79.2967 295.699 80.0708C296.125 80.845 296.338 81.8819 296.338 83.1816V93.9629H293.824V91.747H293.696C293.525 92.1021 293.241 92.4821 292.844 92.8869C292.446 93.2917 291.917 93.6362 291.256 93.9203C290.596 94.2044 289.79 94.3464 288.838 94.3464ZM289.221 92.0879C290.216 92.0879 291.054 91.8926 291.736 91.502C292.425 91.1113 292.943 90.6071 293.291 89.9892C293.646 89.3713 293.824 88.7214 293.824 88.0396V85.7385C293.717 85.8663 293.483 85.9835 293.121 86.09C292.765 86.1895 292.354 86.2782 291.885 86.3564C291.423 86.4274 290.972 86.4913 290.532 86.5481C290.099 86.5978 289.747 86.6404 289.477 86.676C288.824 86.7612 288.213 86.8997 287.645 87.0914C287.084 87.2761 286.629 87.5566 286.281 87.9331C285.94 88.3024 285.77 88.8066 285.77 89.4458C285.77 90.3194 286.093 90.9799 286.739 91.4274C287.393 91.8677 288.22 92.0879 289.221 92.0879ZM300.519 93.9629V77.5993H303.033V93.9629H300.519ZM301.797 74.872C301.307 74.872 300.885 74.7051 300.53 74.3713C300.181 74.0375 300.007 73.6362 300.007 73.1674C300.007 72.6987 300.181 72.2974 300.53 71.9636C300.885 71.6298 301.307 71.4629 301.797 71.4629C302.287 71.4629 302.706 71.6298 303.054 71.9636C303.409 72.2974 303.587 72.6987 303.587 73.1674C303.587 73.6362 303.409 74.0375 303.054 74.3713C302.706 74.7051 302.287 74.872 301.797 74.872ZM313.409 94.3038C312.045 94.3038 310.841 93.9593 309.797 93.2704C308.753 92.5744 307.937 91.5943 307.347 90.3301C306.758 89.0588 306.463 87.5566 306.463 85.8237C306.463 84.1049 306.758 82.6135 307.347 81.3493C307.937 80.085 308.757 79.1085 309.808 78.4196C310.859 77.7306 312.074 77.3862 313.452 77.3862C314.517 77.3862 315.359 77.5637 315.976 77.9189C316.601 78.2669 317.077 78.6646 317.404 79.112C317.738 79.5524 317.997 79.9146 318.182 80.1987H318.395V72.1447H320.909V93.9629H318.48V91.4487H318.182C317.997 91.747 317.734 92.1234 317.393 92.5779C317.052 93.0254 316.566 93.4267 315.934 93.7818C315.302 94.1298 314.46 94.3038 313.409 94.3038ZM313.75 92.0453C314.758 92.0453 315.611 91.7825 316.307 91.2569C317.003 90.7243 317.532 89.9892 317.894 89.0517C318.256 88.1071 318.437 87.0169 318.437 85.7811C318.437 84.5595 318.26 83.4906 317.905 82.5744C317.55 81.6511 317.024 80.9338 316.328 80.4224C315.632 79.9039 314.773 79.6447 313.75 79.6447C312.685 79.6447 311.797 79.9181 311.087 80.465C310.383 81.0048 309.854 81.7399 309.499 82.6703C309.151 83.5936 308.977 84.6305 308.977 85.7811C308.977 86.9458 309.155 88.0041 309.51 88.9558C309.872 89.9004 310.405 90.6532 311.108 91.2143C311.818 91.7683 312.699 92.0453 313.75 92.0453ZM353.396 80.1135V82.2441H331.663V80.1135H353.396ZM353.396 84.7157V86.8464H331.663V84.7157H353.396ZM351.659 72.1447V93.9629H347.675L338.193 80.2306H338.023V93.9629H333.42V72.1447H337.458L346.886 85.8663H347.067V72.1447H351.659ZM364.741 72.1447V93.9629H360.128V76.5233H360L355.004 79.6554V75.5645L360.405 72.1447H364.741ZM377.487 94.2612C375.982 94.2612 374.639 93.9842 373.46 93.4302C372.288 92.8762 371.358 92.1127 370.669 91.1397C369.98 90.1667 369.621 89.0517 369.593 87.7946H374.067C374.117 88.6397 374.472 89.3251 375.133 89.8507C375.793 90.3762 376.578 90.639 377.487 90.639C378.212 90.639 378.851 90.4792 379.405 90.1596C379.966 89.8329 380.403 89.3819 380.715 88.8066C381.035 88.2243 381.195 87.5566 381.195 86.8038C381.195 86.0368 381.031 85.362 380.705 84.7797C380.385 84.1973 379.941 83.7427 379.373 83.416C378.805 83.0893 378.155 82.9224 377.423 82.9153C376.784 82.9153 376.163 83.0467 375.559 83.3095C374.962 83.5723 374.497 83.9309 374.163 84.3855L370.062 83.6504L371.095 72.1447H384.433V75.916H374.898L374.334 81.3812H374.462C374.845 80.8414 375.424 80.394 376.198 80.0389C376.972 79.6838 377.839 79.5062 378.798 79.5062C380.111 79.5062 381.283 79.8152 382.313 80.4331C383.343 81.051 384.156 81.8997 384.753 82.9792C385.349 84.0517 385.644 85.2875 385.637 86.6866C385.644 88.1568 385.303 89.4636 384.614 90.6071C383.932 91.7434 382.977 92.6383 381.749 93.2917C380.527 93.938 379.107 94.2612 377.487 94.2612ZM397.001 94.4423C395.169 94.4352 393.592 93.9842 392.271 93.0893C390.957 92.1944 389.945 90.8983 389.235 89.2008C388.532 87.5034 388.184 85.4615 388.191 83.0751C388.191 80.6958 388.542 78.6681 389.245 76.992C389.956 75.3159 390.968 74.041 392.282 73.1674C393.603 72.2868 395.176 71.8464 397.001 71.8464C398.826 71.8464 400.396 72.2868 401.71 73.1674C403.031 74.0481 404.047 75.3265 404.757 77.0027C405.467 78.6717 405.819 80.6958 405.811 83.0751C405.811 85.4686 405.456 87.514 404.746 89.2115C404.043 90.9089 403.034 92.2051 401.721 93.1C400.407 93.9949 398.833 94.4423 397.001 94.4423ZM397.001 90.6177C398.251 90.6177 399.249 89.9892 399.995 88.7321C400.74 87.475 401.11 85.5893 401.103 83.0751C401.103 81.4203 400.932 80.0424 400.591 78.9416C400.257 77.8407 399.782 77.0133 399.164 76.4593C398.553 75.9054 397.832 75.6284 397.001 75.6284C395.758 75.6284 394.764 76.2498 394.018 77.4927C393.272 78.7356 392.896 80.5964 392.889 83.0751C392.889 84.7512 393.056 86.1504 393.39 87.2725C393.73 88.3876 394.21 89.2257 394.828 89.7868C395.446 90.3407 396.17 90.6177 397.001 90.6177Z" fill="#070015"/>
<rect x="20.5" y="20.9629" width="459" height="146" rx="30" fill="#807499"/>
<g clip-path="url(#clip0_98_27686)">
<path d="M51.595 83.1308C51.7325 82.9237 51.9467 82.7797 52.1903 82.7305C52.434 82.6813 52.6872 82.7308 52.8944 82.8683L55.7069 84.7452C55.9058 84.8862 56.042 85.0993 56.0864 85.3391C56.1309 85.5788 56.0801 85.8265 55.945 86.0295C55.8098 86.2325 55.6008 86.3748 55.3624 86.4263C55.1241 86.4778 54.875 86.4343 54.6681 86.3052L51.8556 84.4302C51.6488 84.2923 51.5052 84.0781 51.4564 83.8344C51.4075 83.5908 51.4574 83.3377 51.595 83.1308ZM65.5 82.7127C63.2622 82.7127 61.1161 83.6016 59.5338 85.1839C57.9514 86.7663 57.0625 88.9124 57.0625 91.1502V95.652L55.255 100.176C55.198 100.319 55.1767 100.473 55.1931 100.625C55.2094 100.777 55.2628 100.923 55.3487 101.05C55.4345 101.177 55.5502 101.281 55.6855 101.353C55.8209 101.425 55.9718 101.463 56.125 101.463H74.875C75.028 101.463 75.1786 101.425 75.3138 101.353C75.4489 101.281 75.5644 101.178 75.6502 101.051C75.736 100.924 75.7895 100.778 75.8061 100.626C75.8226 100.474 75.8016 100.32 75.745 100.178L73.9375 95.6502V91.1502C73.9375 88.9124 73.0486 86.7663 71.4662 85.1839C69.8839 83.6016 67.7378 82.7127 65.5 82.7127ZM65.5 106.15C64.6685 106.15 63.8605 105.874 63.203 105.365C62.5456 104.856 62.076 104.143 61.8681 103.338H69.1319C68.924 104.143 68.4544 104.856 67.797 105.365C67.1395 105.874 66.3315 106.15 65.5 106.15ZM78.1056 82.8702C78.3125 82.741 78.5616 82.6975 78.7999 82.749C79.0383 82.8005 79.2473 82.9428 79.3825 83.1458C79.5176 83.3488 79.5684 83.5965 79.5239 83.8363C79.4795 84.0761 79.3433 84.2891 79.1444 84.4302L76.3319 86.3052C76.125 86.4343 75.8759 86.4778 75.6376 86.4263C75.3992 86.3748 75.1902 86.2325 75.055 86.0295C74.9199 85.8265 74.8691 85.5788 74.9136 85.3391C74.958 85.0993 75.0942 84.8862 75.2931 84.7452L78.1056 82.8702ZM50.5 91.1502C50.5 90.9015 50.5988 90.6631 50.7746 90.4872C50.9504 90.3114 51.1889 90.2127 51.4375 90.2127H54.25C54.4986 90.2127 54.7371 90.3114 54.9129 90.4872C55.0887 90.6631 55.1875 90.9015 55.1875 91.1502C55.1875 91.3988 55.0887 91.6373 54.9129 91.8131C54.7371 91.9889 54.4986 92.0877 54.25 92.0877H51.4375C51.1889 92.0877 50.9504 91.9889 50.7746 91.8131C50.5988 91.6373 50.5 91.3988 50.5 91.1502ZM79.5625 90.2127C79.8111 90.2127 80.0496 90.3114 80.2254 90.4872C80.4012 90.6631 80.5 90.9015 80.5 91.1502C80.5 91.3988 80.4012 91.6373 80.2254 91.8131C80.0496 91.9889 79.8111 92.0877 79.5625 92.0877H76.75C76.5014 92.0877 76.2629 91.9889 76.0871 91.8131C75.9113 91.6373 75.8125 91.3988 75.8125 91.1502C75.8125 90.9015 75.9113 90.6631 76.0871 90.4872C76.2629 90.3114 76.5014 90.2127 76.75 90.2127H79.5625Z" fill="#7F56D9"/>
</g>
<path d="M118.435 52.1447H121.46L127.512 62.3294H127.767L133.818 52.1447H136.844L128.96 64.9714V73.9629H126.318V64.9714L118.435 52.1447ZM143.845 74.3038C142.368 74.3038 141.072 73.9522 139.957 73.2491C138.849 72.546 137.982 71.5623 137.357 70.2981C136.74 69.0339 136.431 67.5566 136.431 65.8663C136.431 64.1618 136.74 62.6738 137.357 61.4025C137.982 60.1312 138.849 59.144 139.957 58.4409C141.072 57.7377 142.368 57.3862 143.845 57.3862C145.323 57.3862 146.615 57.7377 147.723 58.4409C148.838 59.144 149.705 60.1312 150.323 61.4025C150.948 62.6738 151.26 64.1618 151.26 65.8663C151.26 67.5566 150.948 69.0339 150.323 70.2981C149.705 71.5623 148.838 72.546 147.723 73.2491C146.615 73.9522 145.323 74.3038 143.845 74.3038ZM143.845 72.0453C144.968 72.0453 145.891 71.7576 146.615 71.1824C147.34 70.6071 147.876 69.8507 148.224 68.9132C148.572 67.9757 148.746 66.96 148.746 65.8663C148.746 64.7725 148.572 63.7534 148.224 62.8088C147.876 61.8642 147.34 61.1007 146.615 60.5183C145.891 59.9359 144.968 59.6447 143.845 59.6447C142.723 59.6447 141.8 59.9359 141.075 60.5183C140.351 61.1007 139.815 61.8642 139.467 62.8088C139.119 63.7534 138.945 64.7725 138.945 65.8663C138.945 66.96 139.119 67.9757 139.467 68.9132C139.815 69.8507 140.351 70.6071 141.075 71.1824C141.8 71.7576 142.723 72.0453 143.845 72.0453ZM165.003 67.2725V57.5993H167.517V73.9629H165.003V71.193H164.832C164.449 72.024 163.852 72.7306 163.042 73.313C162.233 73.8883 161.21 74.176 159.974 74.176C158.951 74.176 158.042 73.9522 157.247 73.5048C156.451 73.0502 155.826 72.3684 155.372 71.4593C154.917 70.5431 154.69 69.389 154.69 67.997V57.5993H157.204V67.8265C157.204 69.0197 157.538 69.9714 158.206 70.6816C158.88 71.3919 159.74 71.747 160.784 71.747C161.409 71.747 162.044 71.5872 162.691 71.2676C163.344 70.948 163.891 70.4579 164.331 69.7974C164.779 69.1369 165.003 68.2953 165.003 67.2725ZM179.743 57.5993H182.257V75.1561C182.257 76.1646 182.083 77.0382 181.735 77.7768C181.394 78.5154 180.876 79.0872 180.18 79.492C179.491 79.8968 178.621 80.0993 177.57 80.0993C177.485 80.0993 177.399 80.0993 177.314 80.0993C177.229 80.0993 177.144 80.0993 177.059 80.0993V77.7555C177.144 77.7555 177.222 77.7555 177.293 77.7555C177.364 77.7555 177.442 77.7555 177.527 77.7555C178.294 77.7555 178.855 77.5282 179.21 77.0737C179.566 76.6262 179.743 75.987 179.743 75.1561V57.5993ZM180.979 54.872C180.489 54.872 180.066 54.7051 179.711 54.3713C179.363 54.0375 179.189 53.6362 179.189 53.1674C179.189 52.6987 179.363 52.2974 179.711 51.9636C180.066 51.6298 180.489 51.4629 180.979 51.4629C181.469 51.4629 181.888 51.6298 182.236 51.9636C182.591 52.2974 182.769 52.6987 182.769 53.1674C182.769 53.6362 182.591 54.0375 182.236 54.3713C181.888 54.7051 181.469 54.872 180.979 54.872ZM196.767 67.2725V57.5993H199.281V73.9629H196.767V71.193H196.596C196.213 72.024 195.616 72.7306 194.807 73.313C193.997 73.8883 192.974 74.176 191.738 74.176C190.716 74.176 189.807 73.9522 189.011 73.5048C188.216 73.0502 187.591 72.3684 187.136 71.4593C186.682 70.5431 186.454 69.389 186.454 67.997V57.5993H188.969V67.8265C188.969 69.0197 189.302 69.9714 189.97 70.6816C190.645 71.3919 191.504 71.747 192.548 71.747C193.173 71.747 193.809 71.5872 194.455 71.2676C195.108 70.948 195.655 70.4579 196.096 69.7974C196.543 69.1369 196.767 68.2953 196.767 67.2725ZM215.069 61.264L212.81 61.9032C212.668 61.5268 212.459 61.161 212.182 60.8059C211.912 60.4437 211.543 60.1454 211.074 59.911C210.605 59.6767 210.005 59.5595 209.273 59.5595C208.272 59.5595 207.437 59.7903 206.77 60.252C206.109 60.7065 205.779 61.2853 205.779 61.9885C205.779 62.6135 206.006 63.1071 206.461 63.4693C206.915 63.8315 207.626 64.1333 208.592 64.3748L211.021 64.9714C212.484 65.3265 213.574 65.8699 214.291 66.6014C215.008 67.3258 215.367 68.2598 215.367 69.4032C215.367 70.3407 215.097 71.1788 214.558 71.9174C214.025 72.6561 213.279 73.2385 212.32 73.6646C211.361 74.0907 210.246 74.3038 208.975 74.3038C207.306 74.3038 205.925 73.9416 204.831 73.2172C203.737 72.4927 203.045 71.4345 202.754 70.0424L205.14 69.4458C205.367 70.3265 205.797 70.987 206.429 71.4274C207.068 71.8677 207.903 72.0879 208.933 72.0879C210.104 72.0879 211.035 71.8393 211.724 71.3422C212.42 70.8379 212.768 70.2342 212.768 69.5311C212.768 68.9629 212.569 68.487 212.171 68.1035C211.773 67.7129 211.163 67.4217 210.339 67.2299L207.611 66.5907C206.113 66.2356 205.012 65.6852 204.309 64.9395C203.613 64.1866 203.265 63.2456 203.265 62.1163C203.265 61.193 203.524 60.3762 204.043 59.666C204.568 58.9558 205.282 58.3983 206.184 57.9934C207.093 57.5886 208.123 57.3862 209.273 57.3862C210.893 57.3862 212.164 57.7413 213.087 58.4515C214.018 59.1618 214.678 60.0993 215.069 61.264ZM225.86 57.5993V59.7299H217.38V57.5993H225.86ZM219.852 53.6788H222.366V69.2754C222.366 69.9856 222.469 70.5183 222.675 70.8734C222.888 71.2214 223.158 71.4558 223.485 71.5765C223.818 71.6902 224.17 71.747 224.539 71.747C224.816 71.747 225.043 71.7328 225.221 71.7044C225.399 71.6689 225.541 71.6404 225.647 71.6191L226.159 73.8777C225.988 73.9416 225.75 74.0055 225.445 74.0694C225.139 74.1404 224.752 74.176 224.284 74.176C223.573 74.176 222.877 74.0233 222.195 73.7179C221.521 73.4125 220.96 72.9473 220.512 72.3223C220.072 71.6973 219.852 70.9089 219.852 69.9572V53.6788ZM243.869 80.4402C242.654 80.4402 241.61 80.2839 240.737 79.9714C239.863 79.666 239.135 79.2612 238.553 78.7569C237.978 78.2598 237.519 77.7271 237.178 77.1589L239.181 75.7527C239.409 76.051 239.696 76.3919 240.044 76.7754C240.392 77.166 240.868 77.5034 241.472 77.7875C242.083 78.0787 242.882 78.2243 243.869 78.2243C245.19 78.2243 246.28 77.9047 247.139 77.2654C247.999 76.6262 248.428 75.6248 248.428 74.2612V70.9373H248.215C248.031 71.2356 247.768 71.6049 247.427 72.0453C247.093 72.4785 246.61 72.8656 245.978 73.2065C245.353 73.5403 244.508 73.7072 243.443 73.7072C242.122 73.7072 240.936 73.3947 239.884 72.7697C238.84 72.1447 238.013 71.2356 237.402 70.0424C236.799 68.8493 236.497 67.4004 236.497 65.6958C236.497 64.0197 236.791 62.5602 237.381 61.3173C237.97 60.0673 238.791 59.1014 239.842 58.4196C240.893 57.7306 242.107 57.3862 243.485 57.3862C244.551 57.3862 245.396 57.5637 246.021 57.9189C246.653 58.2669 247.136 58.6646 247.47 59.112C247.811 59.5524 248.073 59.9146 248.258 60.1987H248.514V57.5993H250.943V74.4316C250.943 75.8379 250.623 76.9814 249.984 77.862C249.352 78.7498 248.5 79.3997 247.427 79.8116C246.362 80.2306 245.176 80.4402 243.869 80.4402ZM243.784 71.4487C244.792 71.4487 245.644 71.2179 246.34 70.7562C247.036 70.2946 247.566 69.6305 247.928 68.764C248.29 67.8975 248.471 66.8606 248.471 65.6532C248.471 64.4743 248.294 63.4338 247.938 62.5318C247.583 61.6298 247.058 60.9231 246.362 60.4118C245.666 59.9004 244.806 59.6447 243.784 59.6447C242.718 59.6447 241.83 59.9146 241.12 60.4544C240.417 60.9941 239.888 61.7186 239.533 62.6277C239.185 63.5368 239.011 64.5453 239.011 65.6532C239.011 66.7896 239.188 67.7946 239.544 68.6681C239.906 69.5346 240.438 70.2164 241.142 70.7136C241.852 71.2037 242.732 71.4487 243.784 71.4487ZM261.785 74.3038C260.307 74.3038 259.011 73.9522 257.896 73.2491C256.788 72.546 255.922 71.5623 255.297 70.2981C254.679 69.0339 254.37 67.5566 254.37 65.8663C254.37 64.1618 254.679 62.6738 255.297 61.4025C255.922 60.1312 256.788 59.144 257.896 58.4409C259.011 57.7377 260.307 57.3862 261.785 57.3862C263.262 57.3862 264.555 57.7377 265.663 58.4409C266.778 59.144 267.644 60.1312 268.262 61.4025C268.887 62.6738 269.199 64.1618 269.199 65.8663C269.199 67.5566 268.887 69.0339 268.262 70.2981C267.644 71.5623 266.778 72.546 265.663 73.2491C264.555 73.9522 263.262 74.3038 261.785 74.3038ZM261.785 72.0453C262.907 72.0453 263.83 71.7576 264.555 71.1824C265.279 70.6071 265.815 69.8507 266.163 68.9132C266.511 67.9757 266.685 66.96 266.685 65.8663C266.685 64.7725 266.511 63.7534 266.163 62.8088C265.815 61.8642 265.279 61.1007 264.555 60.5183C263.83 59.9359 262.907 59.6447 261.785 59.6447C260.663 59.6447 259.739 59.9359 259.015 60.5183C258.29 61.1007 257.754 61.8642 257.406 62.8088C257.058 63.7534 256.884 64.7725 256.884 65.8663C256.884 66.96 257.058 67.9757 257.406 68.9132C257.754 69.8507 258.29 70.6071 259.015 71.1824C259.739 71.7576 260.663 72.0453 261.785 72.0453ZM279.746 57.5993V59.7299H271.266V57.5993H279.746ZM273.737 53.6788H276.252V69.2754C276.252 69.9856 276.354 70.5183 276.56 70.8734C276.774 71.2214 277.043 71.4558 277.37 71.5765C277.704 71.6902 278.055 71.747 278.425 71.747C278.702 71.747 278.929 71.7328 279.107 71.7044C279.284 71.6689 279.426 71.6404 279.533 71.6191L280.044 73.8777C279.874 73.9416 279.636 74.0055 279.33 74.0694C279.025 74.1404 278.638 74.176 278.169 74.176C277.459 74.176 276.763 74.0233 276.081 73.7179C275.406 73.4125 274.845 72.9473 274.398 72.3223C273.957 71.6973 273.737 70.9089 273.737 69.9572V53.6788ZM291.149 80.0993V57.5993H293.578V60.1987H293.877C294.061 59.9146 294.317 59.5524 294.644 59.112C294.977 58.6646 295.453 58.2669 296.071 57.9189C296.696 57.5637 297.541 57.3862 298.607 57.3862C299.985 57.3862 301.199 57.7306 302.25 58.4196C303.301 59.1085 304.122 60.085 304.711 61.3493C305.301 62.6135 305.595 64.1049 305.595 65.8237C305.595 67.5566 305.301 69.0588 304.711 70.3301C304.122 71.5943 303.305 72.5744 302.261 73.2704C301.217 73.9593 300.013 74.3038 298.649 74.3038C297.598 74.3038 296.757 74.1298 296.124 73.7818C295.492 73.4267 295.006 73.0254 294.665 72.5779C294.324 72.1234 294.061 71.747 293.877 71.4487H293.664V80.0993H291.149ZM293.621 65.7811C293.621 67.0169 293.802 68.1071 294.164 69.0517C294.526 69.9892 295.056 70.7243 295.752 71.2569C296.448 71.7825 297.3 72.0453 298.308 72.0453C299.36 72.0453 300.237 71.7683 300.94 71.2143C301.65 70.6532 302.183 69.9004 302.538 68.9558C302.9 68.0041 303.081 66.9458 303.081 65.7811C303.081 64.6305 302.904 63.5936 302.548 62.6703C302.2 61.7399 301.671 61.0048 300.961 60.465C300.258 59.9181 299.374 59.6447 298.308 59.6447C297.286 59.6447 296.426 59.9039 295.73 60.4224C295.034 60.9338 294.509 61.6511 294.154 62.5744C293.798 63.4906 293.621 64.5595 293.621 65.7811ZM313.838 74.3464C312.801 74.3464 311.86 74.1511 311.015 73.7605C310.17 73.3627 309.498 72.791 309.001 72.0453C308.504 71.2924 308.255 70.3833 308.255 69.318C308.255 68.3805 308.44 67.6206 308.809 67.0382C309.179 66.4487 309.672 65.987 310.29 65.6532C310.908 65.3194 311.59 65.0708 312.336 64.9075C313.089 64.737 313.845 64.6021 314.605 64.5027C315.599 64.3748 316.405 64.2789 317.023 64.215C317.648 64.144 318.103 64.0268 318.387 63.8635C318.678 63.7001 318.824 63.416 318.824 63.0112V62.926C318.824 61.8748 318.536 61.0581 317.961 60.4757C317.393 59.8933 316.53 59.6021 315.372 59.6021C314.172 59.6021 313.231 59.8649 312.549 60.3904C311.867 60.916 311.388 61.4771 311.111 62.0737L308.724 61.2214C309.15 60.2271 309.719 59.4529 310.429 58.899C311.146 58.3379 311.927 57.9473 312.773 57.7271C313.625 57.4998 314.463 57.3862 315.287 57.3862C315.812 57.3862 316.416 57.4501 317.098 57.5779C317.787 57.6987 318.451 57.9508 319.09 58.3343C319.736 58.7179 320.273 59.2967 320.699 60.0708C321.125 60.845 321.338 61.8819 321.338 63.1816V73.9629H318.824V71.747H318.696C318.525 72.1021 318.241 72.4821 317.844 72.8869C317.446 73.2917 316.917 73.6362 316.256 73.9203C315.596 74.2044 314.79 74.3464 313.838 74.3464ZM314.221 72.0879C315.216 72.0879 316.054 71.8926 316.736 71.502C317.425 71.1113 317.943 70.6071 318.291 69.9892C318.646 69.3713 318.824 68.7214 318.824 68.0396V65.7385C318.717 65.8663 318.483 65.9835 318.121 66.09C317.765 66.1895 317.354 66.2782 316.885 66.3564C316.423 66.4274 315.972 66.4913 315.532 66.5481C315.099 66.5978 314.747 66.6404 314.477 66.676C313.824 66.7612 313.213 66.8997 312.645 67.0914C312.084 67.2761 311.629 67.5566 311.281 67.9331C310.94 68.3024 310.77 68.8066 310.77 69.4458C310.77 70.3194 311.093 70.9799 311.739 71.4274C312.393 71.8677 313.22 72.0879 314.221 72.0879ZM325.519 73.9629V57.5993H328.033V73.9629H325.519ZM326.797 54.872C326.307 54.872 325.885 54.7051 325.53 54.3713C325.181 54.0375 325.007 53.6362 325.007 53.1674C325.007 52.6987 325.181 52.2974 325.53 51.9636C325.885 51.6298 326.307 51.4629 326.797 51.4629C327.287 51.4629 327.706 51.6298 328.054 51.9636C328.409 52.2974 328.587 52.6987 328.587 53.1674C328.587 53.6362 328.409 54.0375 328.054 54.3713C327.706 54.7051 327.287 54.872 326.797 54.872ZM338.409 74.3038C337.045 74.3038 335.841 73.9593 334.797 73.2704C333.753 72.5744 332.937 71.5943 332.347 70.3301C331.758 69.0588 331.463 67.5566 331.463 65.8237C331.463 64.1049 331.758 62.6135 332.347 61.3493C332.937 60.085 333.757 59.1085 334.808 58.4196C335.859 57.7306 337.074 57.3862 338.452 57.3862C339.517 57.3862 340.359 57.5637 340.976 57.9189C341.601 58.2669 342.077 58.6646 342.404 59.112C342.738 59.5524 342.997 59.9146 343.182 60.1987H343.395V52.1447H345.909V73.9629H343.48V71.4487H343.182C342.997 71.747 342.734 72.1234 342.393 72.5779C342.052 73.0254 341.566 73.4267 340.934 73.7818C340.302 74.1298 339.46 74.3038 338.409 74.3038ZM338.75 72.0453C339.758 72.0453 340.611 71.7825 341.307 71.2569C342.003 70.7243 342.532 69.9892 342.894 69.0517C343.256 68.1071 343.437 67.0169 343.437 65.7811C343.437 64.5595 343.26 63.4906 342.905 62.5744C342.55 61.6511 342.024 60.9338 341.328 60.4224C340.632 59.9039 339.773 59.6447 338.75 59.6447C337.685 59.6447 336.797 59.9181 336.087 60.465C335.383 61.0048 334.854 61.7399 334.499 62.6703C334.151 63.5936 333.977 64.6305 333.977 65.7811C333.977 66.9458 334.155 68.0041 334.51 68.9558C334.872 69.9004 335.405 70.6532 336.108 71.2143C336.818 71.7683 337.699 72.0453 338.75 72.0453ZM378.396 60.1135V62.2441H356.663V60.1135H378.396ZM378.396 64.7157V66.8464H356.663V64.7157H378.396ZM376.659 52.1447V73.9629H372.675L363.193 60.2306H363.023V73.9629H358.42V52.1447H362.458L371.886 65.8663H372.067V52.1447H376.659ZM389.741 52.1447V73.9629H385.128V56.5233H385L380.004 59.6554V55.5645L385.405 52.1447H389.741ZM402.487 74.2612C400.982 74.2612 399.639 73.9842 398.46 73.4302C397.288 72.8762 396.358 72.1127 395.669 71.1397C394.98 70.1667 394.621 69.0517 394.593 67.7946H399.067C399.117 68.6397 399.472 69.3251 400.133 69.8507C400.793 70.3762 401.578 70.639 402.487 70.639C403.212 70.639 403.851 70.4792 404.405 70.1596C404.966 69.8329 405.403 69.3819 405.715 68.8066C406.035 68.2243 406.195 67.5566 406.195 66.8038C406.195 66.0368 406.031 65.362 405.705 64.7797C405.385 64.1973 404.941 63.7427 404.373 63.416C403.805 63.0893 403.155 62.9224 402.423 62.9153C401.784 62.9153 401.163 63.0467 400.559 63.3095C399.962 63.5723 399.497 63.9309 399.163 64.3855L395.062 63.6504L396.095 52.1447H409.433V55.916H399.898L399.334 61.3812H399.462C399.845 60.8414 400.424 60.394 401.198 60.0389C401.972 59.6838 402.839 59.5062 403.798 59.5062C405.111 59.5062 406.283 59.8152 407.313 60.4331C408.343 61.051 409.156 61.8997 409.753 62.9792C410.349 64.0517 410.644 65.2875 410.637 66.6866C410.644 68.1568 410.303 69.4636 409.614 70.6071C408.932 71.7434 407.977 72.6383 406.749 73.2917C405.527 73.938 404.107 74.2612 402.487 74.2612ZM422.001 74.4423C420.169 74.4352 418.592 73.9842 417.271 73.0893C415.957 72.1944 414.945 70.8983 414.235 69.2008C413.532 67.5034 413.184 65.4615 413.191 63.0751C413.191 60.6958 413.542 58.6681 414.245 56.992C414.956 55.3159 415.968 54.041 417.282 53.1674C418.603 52.2868 420.176 51.8464 422.001 51.8464C423.826 51.8464 425.396 52.2868 426.71 53.1674C428.031 54.0481 429.047 55.3265 429.757 57.0027C430.467 58.6717 430.819 60.6958 430.811 63.0751C430.811 65.4686 430.456 67.514 429.746 69.2115C429.043 70.9089 428.034 72.2051 426.721 73.1C425.407 73.9949 423.833 74.4423 422.001 74.4423ZM422.001 70.6177C423.251 70.6177 424.249 69.9892 424.995 68.7321C425.74 67.475 426.11 65.5893 426.103 63.0751C426.103 61.4203 425.932 60.0424 425.591 58.9416C425.257 57.8407 424.782 57.0133 424.164 56.4593C423.553 55.9054 422.832 55.6284 422.001 55.6284C420.758 55.6284 419.764 56.2498 419.018 57.4927C418.272 58.7356 417.896 60.5964 417.889 63.0751C417.889 64.7512 418.056 66.1504 418.39 67.2725C418.73 68.3876 419.21 69.2257 419.828 69.7868C420.446 70.3407 421.17 70.6177 422.001 70.6177Z" fill="#070015"/>
<rect x="0.5" y="0.962891" width="499" height="146" rx="30" fill="#FAF8FF"/>
<g clip-path="url(#clip1_98_27686)">
<path d="M51.595 63.1308C51.7325 62.9237 51.9467 62.7797 52.1903 62.7305C52.434 62.6813 52.6872 62.7308 52.8944 62.8683L55.7069 64.7452C55.9058 64.8862 56.042 65.0993 56.0864 65.3391C56.1309 65.5788 56.0801 65.8265 55.945 66.0295C55.8098 66.2325 55.6008 66.3748 55.3624 66.4263C55.1241 66.4778 54.875 66.4343 54.6681 66.3052L51.8556 64.4302C51.6488 64.2923 51.5052 64.0781 51.4564 63.8344C51.4075 63.5908 51.4574 63.3377 51.595 63.1308ZM65.5 62.7127C63.2622 62.7127 61.1161 63.6016 59.5338 65.1839C57.9514 66.7663 57.0625 68.9124 57.0625 71.1502V75.652L55.255 80.1764C55.198 80.3187 55.1767 80.4727 55.1931 80.6251C55.2094 80.7774 55.2628 80.9235 55.3487 81.0504C55.4345 81.1773 55.5502 81.2813 55.6855 81.3532C55.8209 81.425 55.9718 81.4626 56.125 81.4627H74.875C75.028 81.4625 75.1786 81.4249 75.3138 81.3531C75.4489 81.2814 75.5644 81.1776 75.6502 81.0509C75.736 80.9243 75.7895 80.7785 75.8061 80.6264C75.8226 80.4743 75.8016 80.3204 75.745 80.1783L73.9375 75.6502V71.1502C73.9375 68.9124 73.0486 66.7663 71.4662 65.1839C69.8839 63.6016 67.7378 62.7127 65.5 62.7127ZM65.5 86.1502C64.6685 86.1504 63.8605 85.8742 63.203 85.3651C62.5456 84.856 62.076 84.1428 61.8681 83.3377H69.1319C68.924 84.1428 68.4544 84.856 67.797 85.3651C67.1395 85.8742 66.3315 86.1504 65.5 86.1502ZM78.1056 62.8702C78.3125 62.741 78.5616 62.6975 78.7999 62.749C79.0383 62.8005 79.2473 62.9428 79.3825 63.1458C79.5176 63.3488 79.5684 63.5965 79.5239 63.8363C79.4795 64.0761 79.3433 64.2891 79.1444 64.4302L76.3319 66.3052C76.125 66.4343 75.8759 66.4778 75.6376 66.4263C75.3992 66.3748 75.1902 66.2325 75.055 66.0295C74.9199 65.8265 74.8691 65.5788 74.9136 65.3391C74.958 65.0993 75.0942 64.8862 75.2931 64.7452L78.1056 62.8702ZM50.5 71.1502C50.5 70.9015 50.5988 70.6631 50.7746 70.4872C50.9504 70.3114 51.1889 70.2127 51.4375 70.2127H54.25C54.4986 70.2127 54.7371 70.3114 54.9129 70.4872C55.0887 70.6631 55.1875 70.9015 55.1875 71.1502C55.1875 71.3988 55.0887 71.6373 54.9129 71.8131C54.7371 71.9889 54.4986 72.0877 54.25 72.0877H51.4375C51.1889 72.0877 50.9504 71.9889 50.7746 71.8131C50.5988 71.6373 50.5 71.3988 50.5 71.1502ZM79.5625 70.2127C79.8111 70.2127 80.0496 70.3114 80.2254 70.4872C80.4012 70.6631 80.5 70.9015 80.5 71.1502C80.5 71.3988 80.4012 71.6373 80.2254 71.8131C80.0496 71.9889 79.8111 72.0877 79.5625 72.0877H76.75C76.5014 72.0877 76.2629 71.9889 76.0871 71.8131C75.9113 71.6373 75.8125 71.3988 75.8125 71.1502C75.8125 70.9015 75.9113 70.6631 76.0871 70.4872C76.2629 70.3114 76.5014 70.2127 76.75 70.2127H79.5625Z" fill="#7F56D9"/>
</g>
<path d="M118.435 32.1447H121.46L127.512 42.3294H127.767L133.818 32.1447H136.844L128.96 44.9714V53.9629H126.318V44.9714L118.435 32.1447ZM143.845 54.3038C142.368 54.3038 141.072 53.9522 139.957 53.2491C138.849 52.546 137.982 51.5623 137.357 50.2981C136.74 49.0339 136.431 47.5566 136.431 45.8663C136.431 44.1618 136.74 42.6738 137.357 41.4025C137.982 40.1312 138.849 39.144 139.957 38.4409C141.072 37.7377 142.368 37.3862 143.845 37.3862C145.323 37.3862 146.615 37.7377 147.723 38.4409C148.838 39.144 149.705 40.1312 150.323 41.4025C150.948 42.6738 151.26 44.1618 151.26 45.8663C151.26 47.5566 150.948 49.0339 150.323 50.2981C149.705 51.5623 148.838 52.546 147.723 53.2491C146.615 53.9522 145.323 54.3038 143.845 54.3038ZM143.845 52.0453C144.968 52.0453 145.891 51.7576 146.615 51.1824C147.34 50.6071 147.876 49.8507 148.224 48.9132C148.572 47.9757 148.746 46.96 148.746 45.8663C148.746 44.7725 148.572 43.7534 148.224 42.8088C147.876 41.8642 147.34 41.1007 146.615 40.5183C145.891 39.9359 144.968 39.6447 143.845 39.6447C142.723 39.6447 141.8 39.9359 141.075 40.5183C140.351 41.1007 139.815 41.8642 139.467 42.8088C139.119 43.7534 138.945 44.7725 138.945 45.8663C138.945 46.96 139.119 47.9757 139.467 48.9132C139.815 49.8507 140.351 50.6071 141.075 51.1824C141.8 51.7576 142.723 52.0453 143.845 52.0453ZM165.003 47.2725V37.5993H167.517V53.9629H165.003V51.193H164.832C164.449 52.024 163.852 52.7306 163.042 53.313C162.233 53.8883 161.21 54.176 159.974 54.176C158.951 54.176 158.042 53.9522 157.247 53.5048C156.451 53.0502 155.826 52.3684 155.372 51.4593C154.917 50.5431 154.69 49.389 154.69 47.997V37.5993H157.204V47.8265C157.204 49.0197 157.538 49.9714 158.206 50.6816C158.88 51.3919 159.74 51.747 160.784 51.747C161.409 51.747 162.044 51.5872 162.691 51.2676C163.344 50.948 163.891 50.4579 164.331 49.7974C164.779 49.1369 165.003 48.2953 165.003 47.2725ZM179.743 37.5993H182.257V55.1561C182.257 56.1646 182.083 57.0382 181.735 57.7768C181.394 58.5154 180.876 59.0872 180.18 59.492C179.491 59.8968 178.621 60.0993 177.57 60.0993C177.485 60.0993 177.399 60.0993 177.314 60.0993C177.229 60.0993 177.144 60.0993 177.059 60.0993V57.7555C177.144 57.7555 177.222 57.7555 177.293 57.7555C177.364 57.7555 177.442 57.7555 177.527 57.7555C178.294 57.7555 178.855 57.5282 179.21 57.0737C179.566 56.6262 179.743 55.987 179.743 55.1561V37.5993ZM180.979 34.872C180.489 34.872 180.066 34.7051 179.711 34.3713C179.363 34.0375 179.189 33.6362 179.189 33.1674C179.189 32.6987 179.363 32.2974 179.711 31.9636C180.066 31.6298 180.489 31.4629 180.979 31.4629C181.469 31.4629 181.888 31.6298 182.236 31.9636C182.591 32.2974 182.769 32.6987 182.769 33.1674C182.769 33.6362 182.591 34.0375 182.236 34.3713C181.888 34.7051 181.469 34.872 180.979 34.872ZM196.767 47.2725V37.5993H199.281V53.9629H196.767V51.193H196.596C196.213 52.024 195.616 52.7306 194.807 53.313C193.997 53.8883 192.974 54.176 191.738 54.176C190.716 54.176 189.807 53.9522 189.011 53.5048C188.216 53.0502 187.591 52.3684 187.136 51.4593C186.682 50.5431 186.454 49.389 186.454 47.997V37.5993H188.969V47.8265C188.969 49.0197 189.302 49.9714 189.97 50.6816C190.645 51.3919 191.504 51.747 192.548 51.747C193.173 51.747 193.809 51.5872 194.455 51.2676C195.108 50.948 195.655 50.4579 196.096 49.7974C196.543 49.1369 196.767 48.2953 196.767 47.2725ZM215.069 41.264L212.81 41.9032C212.668 41.5268 212.459 41.161 212.182 40.8059C211.912 40.4437 211.543 40.1454 211.074 39.911C210.605 39.6767 210.005 39.5595 209.273 39.5595C208.272 39.5595 207.437 39.7903 206.77 40.252C206.109 40.7065 205.779 41.2853 205.779 41.9885C205.779 42.6135 206.006 43.1071 206.461 43.4693C206.915 43.8315 207.626 44.1333 208.592 44.3748L211.021 44.9714C212.484 45.3265 213.574 45.8699 214.291 46.6014C215.008 47.3258 215.367 48.2598 215.367 49.4032C215.367 50.3407 215.097 51.1788 214.558 51.9174C214.025 52.6561 213.279 53.2385 212.32 53.6646C211.361 54.0907 210.246 54.3038 208.975 54.3038C207.306 54.3038 205.925 53.9416 204.831 53.2172C203.737 52.4927 203.045 51.4345 202.754 50.0424L205.14 49.4458C205.367 50.3265 205.797 50.987 206.429 51.4274C207.068 51.8677 207.903 52.0879 208.933 52.0879C210.104 52.0879 211.035 51.8393 211.724 51.3422C212.42 50.8379 212.768 50.2342 212.768 49.5311C212.768 48.9629 212.569 48.487 212.171 48.1035C211.773 47.7129 211.163 47.4217 210.339 47.2299L207.611 46.5907C206.113 46.2356 205.012 45.6852 204.309 44.9395C203.613 44.1866 203.265 43.2456 203.265 42.1163C203.265 41.193 203.524 40.3762 204.043 39.666C204.568 38.9558 205.282 38.3983 206.184 37.9934C207.093 37.5886 208.123 37.3862 209.273 37.3862C210.893 37.3862 212.164 37.7413 213.087 38.4515C214.018 39.1618 214.678 40.0993 215.069 41.264ZM225.86 37.5993V39.7299H217.38V37.5993H225.86ZM219.852 33.6788H222.366V49.2754C222.366 49.9856 222.469 50.5183 222.675 50.8734C222.888 51.2214 223.158 51.4558 223.485 51.5765C223.818 51.6902 224.17 51.747 224.539 51.747C224.816 51.747 225.043 51.7328 225.221 51.7044C225.399 51.6689 225.541 51.6404 225.647 51.6191L226.159 53.8777C225.988 53.9416 225.75 54.0055 225.445 54.0694C225.139 54.1404 224.752 54.176 224.284 54.176C223.573 54.176 222.877 54.0233 222.195 53.7179C221.521 53.4125 220.96 52.9473 220.512 52.3223C220.072 51.6973 219.852 50.9089 219.852 49.9572V33.6788ZM243.869 60.4402C242.654 60.4402 241.61 60.2839 240.737 59.9714C239.863 59.666 239.135 59.2612 238.553 58.7569C237.978 58.2598 237.519 57.7271 237.178 57.1589L239.181 55.7527C239.409 56.051 239.696 56.3919 240.044 56.7754C240.392 57.166 240.868 57.5034 241.472 57.7875C242.083 58.0787 242.882 58.2243 243.869 58.2243C245.19 58.2243 246.28 57.9047 247.139 57.2654C247.999 56.6262 248.428 55.6248 248.428 54.2612V50.9373H248.215C248.031 51.2356 247.768 51.6049 247.427 52.0453C247.093 52.4785 246.61 52.8656 245.978 53.2065C245.353 53.5403 244.508 53.7072 243.443 53.7072C242.122 53.7072 240.936 53.3947 239.884 52.7697C238.84 52.1447 238.013 51.2356 237.402 50.0424C236.799 48.8493 236.497 47.4004 236.497 45.6958C236.497 44.0197 236.791 42.5602 237.381 41.3173C237.97 40.0673 238.791 39.1014 239.842 38.4196C240.893 37.7306 242.107 37.3862 243.485 37.3862C244.551 37.3862 245.396 37.5637 246.021 37.9189C246.653 38.2669 247.136 38.6646 247.47 39.112C247.811 39.5524 248.073 39.9146 248.258 40.1987H248.514V37.5993H250.943V54.4316C250.943 55.8379 250.623 56.9814 249.984 57.862C249.352 58.7498 248.5 59.3997 247.427 59.8116C246.362 60.2306 245.176 60.4402 243.869 60.4402ZM243.784 51.4487C244.792 51.4487 245.644 51.2179 246.34 50.7562C247.036 50.2946 247.566 49.6305 247.928 48.764C248.29 47.8975 248.471 46.8606 248.471 45.6532C248.471 44.4743 248.294 43.4338 247.938 42.5318C247.583 41.6298 247.058 40.9231 246.362 40.4118C245.666 39.9004 244.806 39.6447 243.784 39.6447C242.718 39.6447 241.83 39.9146 241.12 40.4544C240.417 40.9941 239.888 41.7186 239.533 42.6277C239.185 43.5368 239.011 44.5453 239.011 45.6532C239.011 46.7896 239.188 47.7946 239.544 48.6681C239.906 49.5346 240.438 50.2164 241.142 50.7136C241.852 51.2037 242.732 51.4487 243.784 51.4487ZM261.785 54.3038C260.307 54.3038 259.011 53.9522 257.896 53.2491C256.788 52.546 255.922 51.5623 255.297 50.2981C254.679 49.0339 254.37 47.5566 254.37 45.8663C254.37 44.1618 254.679 42.6738 255.297 41.4025C255.922 40.1312 256.788 39.144 257.896 38.4409C259.011 37.7377 260.307 37.3862 261.785 37.3862C263.262 37.3862 264.555 37.7377 265.663 38.4409C266.778 39.144 267.644 40.1312 268.262 41.4025C268.887 42.6738 269.199 44.1618 269.199 45.8663C269.199 47.5566 268.887 49.0339 268.262 50.2981C267.644 51.5623 266.778 52.546 265.663 53.2491C264.555 53.9522 263.262 54.3038 261.785 54.3038ZM261.785 52.0453C262.907 52.0453 263.83 51.7576 264.555 51.1824C265.279 50.6071 265.815 49.8507 266.163 48.9132C266.511 47.9757 266.685 46.96 266.685 45.8663C266.685 44.7725 266.511 43.7534 266.163 42.8088C265.815 41.8642 265.279 41.1007 264.555 40.5183C263.83 39.9359 262.907 39.6447 261.785 39.6447C260.663 39.6447 259.739 39.9359 259.015 40.5183C258.29 41.1007 257.754 41.8642 257.406 42.8088C257.058 43.7534 256.884 44.7725 256.884 45.8663C256.884 46.96 257.058 47.9757 257.406 48.9132C257.754 49.8507 258.29 50.6071 259.015 51.1824C259.739 51.7576 260.663 52.0453 261.785 52.0453ZM279.746 37.5993V39.7299H271.266V37.5993H279.746ZM273.737 33.6788H276.252V49.2754C276.252 49.9856 276.354 50.5183 276.56 50.8734C276.774 51.2214 277.043 51.4558 277.37 51.5765C277.704 51.6902 278.055 51.747 278.425 51.747C278.702 51.747 278.929 51.7328 279.107 51.7044C279.284 51.6689 279.426 51.6404 279.533 51.6191L280.044 53.8777C279.874 53.9416 279.636 54.0055 279.33 54.0694C279.025 54.1404 278.638 54.176 278.169 54.176C277.459 54.176 276.763 54.0233 276.081 53.7179C275.406 53.4125 274.845 52.9473 274.398 52.3223C273.957 51.6973 273.737 50.9089 273.737 49.9572V33.6788ZM291.149 60.0993V37.5993H293.578V40.1987H293.877C294.061 39.9146 294.317 39.5524 294.644 39.112C294.977 38.6646 295.453 38.2669 296.071 37.9189C296.696 37.5637 297.541 37.3862 298.607 37.3862C299.985 37.3862 301.199 37.7306 302.25 38.4196C303.301 39.1085 304.122 40.085 304.711 41.3493C305.301 42.6135 305.595 44.1049 305.595 45.8237C305.595 47.5566 305.301 49.0588 304.711 50.3301C304.122 51.5943 303.305 52.5744 302.261 53.2704C301.217 53.9593 300.013 54.3038 298.649 54.3038C297.598 54.3038 296.757 54.1298 296.124 53.7818C295.492 53.4267 295.006 53.0254 294.665 52.5779C294.324 52.1234 294.061 51.747 293.877 51.4487H293.664V60.0993H291.149ZM293.621 45.7811C293.621 47.0169 293.802 48.1071 294.164 49.0517C294.526 49.9892 295.056 50.7243 295.752 51.2569C296.448 51.7825 297.3 52.0453 298.308 52.0453C299.36 52.0453 300.237 51.7683 300.94 51.2143C301.65 50.6532 302.183 49.9004 302.538 48.9558C302.9 48.0041 303.081 46.9458 303.081 45.7811C303.081 44.6305 302.904 43.5936 302.548 42.6703C302.2 41.7399 301.671 41.0048 300.961 40.465C300.258 39.9181 299.374 39.6447 298.308 39.6447C297.286 39.6447 296.426 39.9039 295.73 40.4224C295.034 40.9338 294.509 41.6511 294.154 42.5744C293.798 43.4906 293.621 44.5595 293.621 45.7811ZM313.838 54.3464C312.801 54.3464 311.86 54.1511 311.015 53.7605C310.17 53.3627 309.498 52.791 309.001 52.0453C308.504 51.2924 308.255 50.3833 308.255 49.318C308.255 48.3805 308.44 47.6206 308.809 47.0382C309.179 46.4487 309.672 45.987 310.29 45.6532C310.908 45.3194 311.59 45.0708 312.336 44.9075C313.089 44.737 313.845 44.6021 314.605 44.5027C315.599 44.3748 316.405 44.2789 317.023 44.215C317.648 44.144 318.103 44.0268 318.387 43.8635C318.678 43.7001 318.824 43.416 318.824 43.0112V42.926C318.824 41.8748 318.536 41.0581 317.961 40.4757C317.393 39.8933 316.53 39.6021 315.372 39.6021C314.172 39.6021 313.231 39.8649 312.549 40.3904C311.867 40.916 311.388 41.4771 311.111 42.0737L308.724 41.2214C309.15 40.2271 309.719 39.4529 310.429 38.899C311.146 38.3379 311.927 37.9473 312.773 37.7271C313.625 37.4998 314.463 37.3862 315.287 37.3862C315.812 37.3862 316.416 37.4501 317.098 37.5779C317.787 37.6987 318.451 37.9508 319.09 38.3343C319.736 38.7179 320.273 39.2967 320.699 40.0708C321.125 40.845 321.338 41.8819 321.338 43.1816V53.9629H318.824V51.747H318.696C318.525 52.1021 318.241 52.4821 317.844 52.8869C317.446 53.2917 316.917 53.6362 316.256 53.9203C315.596 54.2044 314.79 54.3464 313.838 54.3464ZM314.221 52.0879C315.216 52.0879 316.054 51.8926 316.736 51.502C317.425 51.1113 317.943 50.6071 318.291 49.9892C318.646 49.3713 318.824 48.7214 318.824 48.0396V45.7385C318.717 45.8663 318.483 45.9835 318.121 46.09C317.765 46.1895 317.354 46.2782 316.885 46.3564C316.423 46.4274 315.972 46.4913 315.532 46.5481C315.099 46.5978 314.747 46.6404 314.477 46.676C313.824 46.7612 313.213 46.8997 312.645 47.0914C312.084 47.2761 311.629 47.5566 311.281 47.9331C310.94 48.3024 310.77 48.8066 310.77 49.4458C310.77 50.3194 311.093 50.9799 311.739 51.4274C312.393 51.8677 313.22 52.0879 314.221 52.0879ZM325.519 53.9629V37.5993H328.033V53.9629H325.519ZM326.797 34.872C326.307 34.872 325.885 34.7051 325.53 34.3713C325.181 34.0375 325.007 33.6362 325.007 33.1674C325.007 32.6987 325.181 32.2974 325.53 31.9636C325.885 31.6298 326.307 31.4629 326.797 31.4629C327.287 31.4629 327.706 31.6298 328.054 31.9636C328.409 32.2974 328.587 32.6987 328.587 33.1674C328.587 33.6362 328.409 34.0375 328.054 34.3713C327.706 34.7051 327.287 34.872 326.797 34.872ZM338.409 54.3038C337.045 54.3038 335.841 53.9593 334.797 53.2704C333.753 52.5744 332.937 51.5943 332.347 50.3301C331.758 49.0588 331.463 47.5566 331.463 45.8237C331.463 44.1049 331.758 42.6135 332.347 41.3493C332.937 40.085 333.757 39.1085 334.808 38.4196C335.859 37.7306 337.074 37.3862 338.452 37.3862C339.517 37.3862 340.359 37.5637 340.976 37.9189C341.601 38.2669 342.077 38.6646 342.404 39.112C342.738 39.5524 342.997 39.9146 343.182 40.1987H343.395V32.1447H345.909V53.9629H343.48V51.4487H343.182C342.997 51.747 342.734 52.1234 342.393 52.5779C342.052 53.0254 341.566 53.4267 340.934 53.7818C340.302 54.1298 339.46 54.3038 338.409 54.3038ZM338.75 52.0453C339.758 52.0453 340.611 51.7825 341.307 51.2569C342.003 50.7243 342.532 49.9892 342.894 49.0517C343.256 48.1071 343.437 47.0169 343.437 45.7811C343.437 44.5595 343.26 43.4906 342.905 42.5744C342.55 41.6511 342.024 40.9338 341.328 40.4224C340.632 39.9039 339.773 39.6447 338.75 39.6447C337.685 39.6447 336.797 39.9181 336.087 40.465C335.383 41.0048 334.854 41.7399 334.499 42.6703C334.151 43.5936 333.977 44.6305 333.977 45.7811C333.977 46.9458 334.155 48.0041 334.51 48.9558C334.872 49.9004 335.405 50.6532 336.108 51.2143C336.818 51.7683 337.699 52.0453 338.75 52.0453ZM378.396 40.1135V42.2441H356.663V40.1135H378.396ZM378.396 44.7157V46.8464H356.663V44.7157H378.396ZM376.659 32.1447V53.9629H372.675L363.193 40.2306H363.023V53.9629H358.42V32.1447H362.458L371.886 45.8663H372.067V32.1447H376.659ZM389.741 32.1447V53.9629H385.128V36.5233H385L380.004 39.6554V35.5645L385.405 32.1447H389.741ZM402.487 54.2612C400.982 54.2612 399.639 53.9842 398.46 53.4302C397.288 52.8762 396.358 52.1127 395.669 51.1397C394.98 50.1667 394.621 49.0517 394.593 47.7946H399.067C399.117 48.6397 399.472 49.3251 400.133 49.8507C400.793 50.3762 401.578 50.639 402.487 50.639C403.212 50.639 403.851 50.4792 404.405 50.1596C404.966 49.8329 405.403 49.3819 405.715 48.8066C406.035 48.2243 406.195 47.5566 406.195 46.8038C406.195 46.0368 406.031 45.362 405.705 44.7797C405.385 44.1973 404.941 43.7427 404.373 43.416C403.805 43.0893 403.155 42.9224 402.423 42.9153C401.784 42.9153 401.163 43.0467 400.559 43.3095C399.962 43.5723 399.497 43.9309 399.163 44.3855L395.062 43.6504L396.095 32.1447H409.433V35.916H399.898L399.334 41.3812H399.462C399.845 40.8414 400.424 40.394 401.198 40.0389C401.972 39.6838 402.839 39.5062 403.798 39.5062C405.111 39.5062 406.283 39.8152 407.313 40.4331C408.343 41.051 409.156 41.8997 409.753 42.9792C410.349 44.0517 410.644 45.2875 410.637 46.6866C410.644 48.1568 410.303 49.4636 409.614 50.6071C408.932 51.7434 407.977 52.6383 406.749 53.2917C405.527 53.938 404.107 54.2612 402.487 54.2612ZM422.001 54.4423C420.169 54.4352 418.592 53.9842 417.271 53.0893C415.957 52.1944 414.945 50.8983 414.235 49.2008C413.532 47.5034 413.184 45.4615 413.191 43.0751C413.191 40.6958 413.542 38.6681 414.245 36.992C414.956 35.3159 415.968 34.041 417.282 33.1674C418.603 32.2868 420.176 31.8464 422.001 31.8464C423.826 31.8464 425.396 32.2868 426.71 33.1674C428.031 34.0481 429.047 35.3265 429.757 37.0027C430.467 38.6717 430.819 40.6958 430.811 43.0751C430.811 45.4686 430.456 47.514 429.746 49.2115C429.043 50.9089 428.034 52.2051 426.721 53.1C425.407 53.9949 423.833 54.4423 422.001 54.4423ZM422.001 50.6177C423.251 50.6177 424.249 49.9892 424.995 48.7321C425.74 47.475 426.11 45.5893 426.103 43.0751C426.103 41.4203 425.932 40.0424 425.591 38.9416C425.257 37.8407 424.782 37.0133 424.164 36.4593C423.553 35.9054 422.832 35.6284 422.001 35.6284C420.758 35.6284 419.764 36.2498 419.018 37.4927C418.272 38.7356 417.896 40.5964 417.889 43.0751C417.889 44.7512 418.056 46.1504 418.39 47.2725C418.73 48.3876 419.21 49.2257 419.828 49.7868C420.446 50.3407 421.17 50.6177 422.001 50.6177Z" fill="#070015"/>
<rect width="349" height="45" transform="translate(100.5 81.9629)" fill="#7F56D9" fill-opacity="0.25"/>
<path d="M115.571 99.872V101.577H108.514V99.872H115.571ZM110.628 112.963V98.0652C110.628 97.3152 110.804 96.6902 111.156 96.1902C111.508 95.6902 111.966 95.3152 112.528 95.0652C113.091 94.8152 113.684 94.6902 114.309 94.6902C114.804 94.6902 115.207 94.7299 115.52 94.8095C115.832 94.889 116.065 94.9629 116.219 95.0311L115.639 96.7697C115.537 96.7356 115.395 96.693 115.213 96.6419C115.037 96.5907 114.804 96.5652 114.514 96.5652C113.849 96.5652 113.369 96.7328 113.074 97.068C112.784 97.4032 112.639 97.8947 112.639 98.5424V112.963H110.628ZM122.761 113.236C121.579 113.236 120.542 112.954 119.65 112.392C118.764 111.829 118.071 111.042 117.571 110.031C117.076 109.02 116.829 107.838 116.829 106.486C116.829 105.122 117.076 103.932 117.571 102.915C118.071 101.898 118.764 101.108 119.65 100.545C120.542 99.9828 121.579 99.7015 122.761 99.7015C123.943 99.7015 124.977 99.9828 125.863 100.545C126.755 101.108 127.448 101.898 127.943 102.915C128.443 103.932 128.693 105.122 128.693 106.486C128.693 107.838 128.443 109.02 127.943 110.031C127.448 111.042 126.755 111.829 125.863 112.392C124.977 112.954 123.943 113.236 122.761 113.236ZM122.761 111.429C123.659 111.429 124.397 111.199 124.977 110.738C125.556 110.278 125.985 109.673 126.264 108.923C126.542 108.173 126.681 107.361 126.681 106.486C126.681 105.611 126.542 104.795 126.264 104.04C125.985 103.284 125.556 102.673 124.977 102.207C124.397 101.741 123.659 101.508 122.761 101.508C121.863 101.508 121.124 101.741 120.545 102.207C119.965 102.673 119.536 103.284 119.258 104.04C118.98 104.795 118.84 105.611 118.84 106.486C118.84 107.361 118.98 108.173 119.258 108.923C119.536 109.673 119.965 110.278 120.545 110.738C121.124 111.199 121.863 111.429 122.761 111.429ZM131.355 112.963V99.872H133.298V101.849H133.435C133.673 101.202 134.105 100.676 134.73 100.273C135.355 99.8691 136.06 99.6674 136.844 99.6674C136.991 99.6674 137.176 99.6703 137.398 99.676C137.619 99.6816 137.787 99.6902 137.9 99.7015V101.747C137.832 101.73 137.676 101.704 137.432 101.67C137.193 101.631 136.94 101.611 136.673 101.611C136.037 101.611 135.469 101.744 134.969 102.011C134.474 102.273 134.082 102.636 133.792 103.102C133.508 103.562 133.366 104.088 133.366 104.679V112.963H131.355ZM146.219 112.963V99.872H148.162V101.849H148.298C148.537 101.202 148.969 100.676 149.594 100.273C150.219 99.8691 150.923 99.6674 151.707 99.6674C151.855 99.6674 152.04 99.6703 152.261 99.676C152.483 99.6816 152.65 99.6902 152.764 99.7015V101.747C152.696 101.73 152.54 101.704 152.295 101.67C152.057 101.631 151.804 101.611 151.537 101.611C150.9 101.611 150.332 101.744 149.832 102.011C149.338 102.273 148.946 102.636 148.656 103.102C148.372 103.562 148.23 104.088 148.23 104.679V112.963H146.219ZM159.831 113.236C158.569 113.236 157.481 112.957 156.566 112.4C155.657 111.838 154.956 111.054 154.461 110.048C153.973 109.037 153.728 107.861 153.728 106.52C153.728 105.179 153.973 103.997 154.461 102.974C154.956 101.946 155.643 101.145 156.524 100.571C157.41 99.9913 158.444 99.7015 159.626 99.7015C160.308 99.7015 160.981 99.8152 161.646 100.042C162.311 100.27 162.916 100.639 163.461 101.15C164.007 101.656 164.441 102.327 164.765 103.162C165.089 103.997 165.251 105.025 165.251 106.247V107.099H155.16V105.361H163.206C163.206 104.622 163.058 103.963 162.762 103.383C162.473 102.804 162.058 102.346 161.518 102.011C160.984 101.676 160.353 101.508 159.626 101.508C158.825 101.508 158.132 101.707 157.546 102.105C156.967 102.497 156.521 103.008 156.208 103.639C155.896 104.27 155.74 104.946 155.74 105.667V106.827C155.74 107.815 155.91 108.653 156.251 109.341C156.598 110.023 157.078 110.542 157.691 110.9C158.305 111.253 159.018 111.429 159.831 111.429C160.359 111.429 160.836 111.355 161.262 111.207C161.694 111.054 162.066 110.827 162.379 110.525C162.691 110.219 162.933 109.838 163.103 109.383L165.046 109.929C164.842 110.588 164.498 111.167 164.015 111.667C163.532 112.162 162.936 112.548 162.225 112.827C161.515 113.099 160.717 113.236 159.831 113.236ZM173.732 99.872V101.577H166.675V99.872H173.732ZM168.789 112.963V98.0652C168.789 97.3152 168.965 96.6902 169.317 96.1902C169.67 95.6902 170.127 95.3152 170.69 95.0652C171.252 94.8152 171.846 94.6902 172.471 94.6902C172.965 94.6902 173.369 94.7299 173.681 94.8095C173.994 94.889 174.227 94.9629 174.38 95.0311L173.8 96.7697C173.698 96.7356 173.556 96.693 173.374 96.6419C173.198 96.5907 172.965 96.5652 172.675 96.5652C172.011 96.5652 171.531 96.7328 171.235 97.068C170.945 97.4032 170.8 97.8947 170.8 98.5424V112.963H168.789ZM181.093 113.236C179.831 113.236 178.743 112.957 177.828 112.4C176.919 111.838 176.218 111.054 175.723 110.048C175.235 109.037 174.99 107.861 174.99 106.52C174.99 105.179 175.235 103.997 175.723 102.974C176.218 101.946 176.905 101.145 177.786 100.571C178.672 99.9913 179.706 99.7015 180.888 99.7015C181.57 99.7015 182.243 99.8152 182.908 100.042C183.573 100.27 184.178 100.639 184.723 101.15C185.269 101.656 185.703 102.327 186.027 103.162C186.351 103.997 186.513 105.025 186.513 106.247V107.099H176.422V105.361H184.468C184.468 104.622 184.32 103.963 184.024 103.383C183.735 102.804 183.32 102.346 182.78 102.011C182.246 101.676 181.615 101.508 180.888 101.508C180.087 101.508 179.394 101.707 178.809 102.105C178.229 102.497 177.783 103.008 177.471 103.639C177.158 104.27 177.002 104.946 177.002 105.667V106.827C177.002 107.815 177.172 108.653 177.513 109.341C177.86 110.023 178.34 110.542 178.953 110.9C179.567 111.253 180.28 111.429 181.093 111.429C181.621 111.429 182.098 111.355 182.524 111.207C182.956 111.054 183.328 110.827 183.641 110.525C183.953 110.219 184.195 109.838 184.365 109.383L186.309 109.929C186.104 110.588 185.76 111.167 185.277 111.667C184.794 112.162 184.198 112.548 183.488 112.827C182.777 113.099 181.979 113.236 181.093 113.236ZM189.165 112.963V99.872H191.108V101.849H191.244C191.483 101.202 191.915 100.676 192.54 100.273C193.165 99.8691 193.869 99.6674 194.653 99.6674C194.801 99.6674 194.986 99.6703 195.207 99.676C195.429 99.6816 195.597 99.6902 195.71 99.7015V101.747C195.642 101.73 195.486 101.704 195.241 101.67C195.003 101.631 194.75 101.611 194.483 101.611C193.847 101.611 193.278 101.744 192.778 102.011C192.284 102.273 191.892 102.636 191.602 103.102C191.318 103.562 191.176 104.088 191.176 104.679V112.963H189.165ZM197.686 112.963V99.872H199.63V101.849H199.766C200.005 101.202 200.436 100.676 201.061 100.273C201.686 99.8691 202.391 99.6674 203.175 99.6674C203.323 99.6674 203.507 99.6703 203.729 99.676C203.951 99.6816 204.118 99.6902 204.232 99.7015V101.747C204.164 101.73 204.007 101.704 203.763 101.67C203.525 101.631 203.272 101.611 203.005 101.611C202.368 101.611 201.8 101.744 201.3 102.011C200.806 102.273 200.414 102.636 200.124 103.102C199.84 103.562 199.698 104.088 199.698 104.679V112.963H197.686ZM206.208 112.963V99.872H208.22V112.963H206.208ZM207.231 97.6902C206.839 97.6902 206.501 97.5566 206.217 97.2896C205.938 97.0225 205.799 96.7015 205.799 96.3265C205.799 95.9515 205.938 95.6305 206.217 95.3635C206.501 95.0964 206.839 94.9629 207.231 94.9629C207.623 94.9629 207.958 95.0964 208.237 95.3635C208.521 95.6305 208.663 95.9515 208.663 96.3265C208.663 96.7015 208.521 97.0225 208.237 97.2896C207.958 97.5566 207.623 97.6902 207.231 97.6902ZM213.507 105.088V112.963H211.495V99.872H213.439V101.917H213.609C213.916 101.253 214.382 100.719 215.007 100.315C215.632 99.9061 216.439 99.7015 217.427 99.7015C218.314 99.7015 219.089 99.8833 219.754 100.247C220.419 100.605 220.936 101.15 221.305 101.883C221.674 102.611 221.859 103.531 221.859 104.645V112.963H219.848V104.781C219.848 103.753 219.581 102.952 219.047 102.378C218.513 101.798 217.78 101.508 216.848 101.508C216.206 101.508 215.632 101.648 215.126 101.926C214.626 102.204 214.231 102.611 213.941 103.145C213.652 103.679 213.507 104.327 213.507 105.088ZM230.411 118.145C229.439 118.145 228.604 118.02 227.905 117.77C227.206 117.525 226.624 117.202 226.158 116.798C225.698 116.4 225.331 115.974 225.058 115.52L226.661 114.395C226.842 114.633 227.073 114.906 227.351 115.213C227.629 115.525 228.01 115.795 228.493 116.023C228.982 116.256 229.621 116.372 230.411 116.372C231.467 116.372 232.34 116.116 233.027 115.605C233.715 115.094 234.058 114.292 234.058 113.202V110.542H233.888C233.74 110.781 233.53 111.077 233.257 111.429C232.99 111.775 232.604 112.085 232.098 112.358C231.598 112.625 230.922 112.758 230.07 112.758C229.013 112.758 228.064 112.508 227.223 112.008C226.388 111.508 225.726 110.781 225.237 109.827C224.754 108.872 224.513 107.713 224.513 106.349C224.513 105.008 224.749 103.841 225.22 102.846C225.692 101.846 226.348 101.074 227.189 100.528C228.03 99.9771 229.002 99.7015 230.104 99.7015C230.956 99.7015 231.632 99.8436 232.132 100.128C232.638 100.406 233.024 100.724 233.291 101.082C233.564 101.434 233.774 101.724 233.922 101.952H234.127V99.872H236.07V113.338C236.07 114.463 235.814 115.378 235.303 116.082C234.797 116.792 234.115 117.312 233.257 117.642C232.405 117.977 231.456 118.145 230.411 118.145ZM230.342 110.952C231.149 110.952 231.831 110.767 232.388 110.398C232.945 110.028 233.368 109.497 233.658 108.804C233.948 108.111 234.092 107.281 234.092 106.315C234.092 105.372 233.95 104.54 233.666 103.818C233.382 103.096 232.962 102.531 232.405 102.122C231.848 101.713 231.161 101.508 230.342 101.508C229.49 101.508 228.78 101.724 228.212 102.156C227.649 102.588 227.226 103.167 226.942 103.895C226.663 104.622 226.524 105.429 226.524 106.315C226.524 107.224 226.666 108.028 226.95 108.727C227.24 109.42 227.666 109.966 228.229 110.363C228.797 110.756 229.502 110.952 230.342 110.952ZM240.809 113.099C240.389 113.099 240.028 112.949 239.727 112.648C239.426 112.346 239.275 111.986 239.275 111.565C239.275 111.145 239.426 110.784 239.727 110.483C240.028 110.182 240.389 110.031 240.809 110.031C241.23 110.031 241.591 110.182 241.892 110.483C242.193 110.784 242.344 111.145 242.344 111.565C242.344 111.844 242.273 112.099 242.13 112.332C241.994 112.565 241.809 112.753 241.576 112.895C241.349 113.031 241.094 113.099 240.809 113.099ZM240.809 103.383C240.389 103.383 240.028 103.233 239.727 102.932C239.426 102.631 239.275 102.27 239.275 101.849C239.275 101.429 239.426 101.068 239.727 100.767C240.028 100.466 240.389 100.315 240.809 100.315C241.23 100.315 241.591 100.466 241.892 100.767C242.193 101.068 242.344 101.429 242.344 101.849C242.344 102.128 242.273 102.383 242.13 102.616C241.994 102.849 241.809 103.037 241.576 103.179C241.349 103.315 241.094 103.383 240.809 103.383ZM245.818 112.963V95.5083H251.92C253.136 95.5083 254.139 95.7186 254.928 96.139C255.718 96.5538 256.306 97.1135 256.693 97.818C257.079 98.5169 257.272 99.2924 257.272 100.145C257.272 100.895 257.139 101.514 256.872 102.003C256.61 102.491 256.264 102.878 255.832 103.162C255.406 103.446 254.943 103.656 254.443 103.792V103.963C254.977 103.997 255.514 104.184 256.053 104.525C256.593 104.866 257.045 105.355 257.409 105.991C257.772 106.628 257.954 107.406 257.954 108.327C257.954 109.202 257.755 109.988 257.357 110.687C256.96 111.386 256.332 111.94 255.474 112.349C254.616 112.758 253.499 112.963 252.124 112.963H245.818ZM247.931 111.088H252.124C253.505 111.088 254.485 110.821 255.065 110.287C255.65 109.747 255.943 109.094 255.943 108.327C255.943 107.736 255.792 107.19 255.491 106.69C255.19 106.184 254.761 105.781 254.204 105.48C253.647 105.173 252.988 105.02 252.227 105.02H247.931V111.088ZM247.931 103.179H251.852C252.488 103.179 253.062 103.054 253.573 102.804C254.09 102.554 254.499 102.202 254.801 101.747C255.107 101.292 255.261 100.758 255.261 100.145C255.261 99.3777 254.994 98.7271 254.46 98.193C253.926 97.6532 253.079 97.3833 251.92 97.3833H247.931V103.179ZM264.599 113.27C263.769 113.27 263.016 113.113 262.34 112.801C261.664 112.483 261.127 112.025 260.729 111.429C260.332 110.827 260.133 110.099 260.133 109.247C260.133 108.497 260.28 107.889 260.576 107.423C260.871 106.952 261.266 106.582 261.76 106.315C262.255 106.048 262.8 105.849 263.397 105.719C263.999 105.582 264.604 105.474 265.212 105.395C266.008 105.292 266.653 105.216 267.147 105.165C267.647 105.108 268.01 105.014 268.238 104.883C268.471 104.753 268.587 104.525 268.587 104.202V104.133C268.587 103.292 268.357 102.639 267.897 102.173C267.442 101.707 266.752 101.474 265.826 101.474C264.866 101.474 264.113 101.684 263.567 102.105C263.022 102.525 262.638 102.974 262.417 103.452L260.508 102.77C260.849 101.974 261.303 101.355 261.871 100.912C262.445 100.463 263.07 100.15 263.746 99.9743C264.428 99.7924 265.099 99.7015 265.758 99.7015C266.178 99.7015 266.661 99.7527 267.207 99.8549C267.758 99.9515 268.289 100.153 268.8 100.46C269.317 100.767 269.746 101.23 270.087 101.849C270.428 102.469 270.599 103.298 270.599 104.338V112.963H268.587V111.19H268.485C268.349 111.474 268.121 111.778 267.803 112.102C267.485 112.426 267.062 112.702 266.533 112.929C266.005 113.156 265.36 113.27 264.599 113.27ZM264.905 111.463C265.701 111.463 266.371 111.307 266.917 110.994C267.468 110.682 267.883 110.278 268.161 109.784C268.445 109.29 268.587 108.77 268.587 108.224V106.383C268.502 106.486 268.314 106.579 268.025 106.665C267.741 106.744 267.411 106.815 267.036 106.878C266.667 106.934 266.306 106.986 265.954 107.031C265.607 107.071 265.326 107.105 265.11 107.133C264.587 107.202 264.099 107.312 263.644 107.466C263.195 107.613 262.832 107.838 262.553 108.139C262.28 108.434 262.144 108.838 262.144 109.349C262.144 110.048 262.403 110.577 262.92 110.934C263.442 111.287 264.104 111.463 264.905 111.463ZM273.862 112.963V99.872H275.805V101.849H275.941C276.18 101.202 276.612 100.676 277.237 100.273C277.862 99.8691 278.566 99.6674 279.35 99.6674C279.498 99.6674 279.683 99.6703 279.904 99.676C280.126 99.6816 280.294 99.6902 280.407 99.7015V101.747C280.339 101.73 280.183 101.704 279.938 101.67C279.7 101.631 279.447 101.611 279.18 101.611C278.544 101.611 277.975 101.744 277.475 102.011C276.981 102.273 276.589 102.636 276.299 103.102C276.015 103.562 275.873 104.088 275.873 104.679V112.963H273.862ZM282.383 112.963V99.872H284.327V101.849H284.463C284.702 101.202 285.133 100.676 285.758 100.273C286.383 99.8691 287.088 99.6674 287.872 99.6674C288.02 99.6674 288.204 99.6703 288.426 99.676C288.648 99.6816 288.815 99.6902 288.929 99.7015V101.747C288.861 101.73 288.704 101.704 288.46 101.67C288.221 101.631 287.969 101.611 287.702 101.611C287.065 101.611 286.497 101.744 285.997 102.011C285.503 102.273 285.111 102.636 284.821 103.102C284.537 103.562 284.395 104.088 284.395 104.679V112.963H282.383ZM292.599 117.872C292.258 117.872 291.954 117.844 291.687 117.787C291.42 117.736 291.235 117.684 291.133 117.633L291.644 115.861C292.133 115.986 292.565 116.031 292.94 115.997C293.315 115.963 293.647 115.795 293.937 115.494C294.233 115.199 294.502 114.719 294.747 114.054L295.122 113.031L290.281 99.872H292.463L296.076 110.304H296.213L299.826 99.872H302.008L296.451 114.872C296.201 115.548 295.892 116.108 295.522 116.551C295.153 117 294.724 117.332 294.235 117.548C293.752 117.764 293.207 117.872 292.599 117.872ZM304.255 99.872H306.266V113.917C306.266 114.724 306.127 115.423 305.849 116.014C305.576 116.605 305.161 117.062 304.604 117.386C304.053 117.71 303.357 117.872 302.516 117.872C302.448 117.872 302.38 117.872 302.312 117.872C302.244 117.872 302.175 117.872 302.107 117.872V115.997C302.175 115.997 302.238 115.997 302.295 115.997C302.352 115.997 302.414 115.997 302.482 115.997C303.096 115.997 303.545 115.815 303.829 115.452C304.113 115.094 304.255 114.582 304.255 113.917V99.872ZM305.244 97.6902C304.852 97.6902 304.513 97.5566 304.229 97.2896C303.951 97.0225 303.812 96.7015 303.812 96.3265C303.812 95.9515 303.951 95.6305 304.229 95.3635C304.513 95.0964 304.852 94.9629 305.244 94.9629C305.636 94.9629 305.971 95.0964 306.249 95.3635C306.533 95.6305 306.675 95.9515 306.675 96.3265C306.675 96.7015 306.533 97.0225 306.249 97.2896C305.971 97.5566 305.636 97.6902 305.244 97.6902ZM319.599 117.565C317.86 117.565 316.323 117.327 314.988 116.849C313.653 116.378 312.531 115.682 311.622 114.761C310.713 113.841 310.025 112.713 309.559 111.378C309.093 110.042 308.86 108.514 308.86 106.792C308.86 105.128 309.096 103.639 309.568 102.327C310.045 101.014 310.735 99.9004 311.639 98.9856C312.548 98.0652 313.65 97.3635 314.946 96.8805C316.247 96.3975 317.718 96.1561 319.36 96.1561C320.957 96.1561 322.355 96.4174 323.554 96.9402C324.758 97.4572 325.764 98.1589 326.571 99.0453C327.383 99.926 327.991 100.917 328.394 102.02C328.804 103.122 329.008 104.258 329.008 105.429C329.008 106.253 328.968 107.088 328.889 107.934C328.809 108.781 328.642 109.559 328.386 110.27C328.13 110.974 327.735 111.542 327.201 111.974C326.673 112.406 325.957 112.622 325.054 112.622C324.656 112.622 324.218 112.559 323.741 112.434C323.264 112.309 322.841 112.102 322.471 111.812C322.102 111.523 321.883 111.133 321.815 110.645H321.713C321.576 110.974 321.366 111.287 321.082 111.582C320.804 111.878 320.437 112.113 319.983 112.29C319.534 112.466 318.985 112.542 318.338 112.52C317.599 112.491 316.948 112.327 316.386 112.025C315.823 111.719 315.352 111.304 314.971 110.781C314.596 110.253 314.312 109.642 314.119 108.949C313.931 108.25 313.838 107.497 313.838 106.69C313.838 105.923 313.951 105.221 314.179 104.585C314.406 103.949 314.721 103.392 315.125 102.915C315.534 102.437 316.011 102.057 316.556 101.773C317.108 101.483 317.701 101.304 318.338 101.236C318.906 101.179 319.423 101.204 319.889 101.312C320.355 101.415 320.738 101.571 321.039 101.781C321.341 101.986 321.531 102.213 321.61 102.463H321.713V101.508H323.519V109.213C323.519 109.69 323.653 110.111 323.92 110.474C324.187 110.838 324.576 111.02 325.088 111.02C325.667 111.02 326.11 110.821 326.417 110.423C326.73 110.025 326.943 109.412 327.056 108.582C327.176 107.753 327.235 106.69 327.235 105.395C327.235 104.633 327.13 103.883 326.92 103.145C326.716 102.4 326.403 101.704 325.983 101.057C325.568 100.409 325.042 99.8379 324.406 99.3436C323.769 98.8493 323.022 98.4629 322.164 98.1845C321.312 97.9004 320.343 97.7583 319.258 97.7583C317.923 97.7583 316.727 97.9657 315.67 98.3805C314.619 98.7896 313.724 99.389 312.985 100.179C312.252 100.963 311.693 101.917 311.306 103.042C310.926 104.162 310.735 105.434 310.735 106.861C310.735 108.309 310.926 109.596 311.306 110.721C311.693 111.846 312.261 112.795 313.011 113.568C313.767 114.341 314.701 114.926 315.815 115.324C316.929 115.727 318.213 115.929 319.667 115.929C320.292 115.929 320.909 115.869 321.517 115.75C322.125 115.631 322.662 115.5 323.127 115.358C323.593 115.216 323.929 115.111 324.133 115.042L324.61 116.611C324.258 116.758 323.798 116.906 323.23 117.054C322.667 117.202 322.065 117.324 321.423 117.42C320.787 117.517 320.179 117.565 319.599 117.565ZM318.61 110.781C319.372 110.781 319.988 110.628 320.46 110.321C320.931 110.014 321.275 109.551 321.491 108.932C321.707 108.312 321.815 107.531 321.815 106.588C321.815 105.633 321.696 104.889 321.457 104.355C321.218 103.821 320.866 103.446 320.4 103.23C319.934 103.014 319.36 102.906 318.679 102.906C318.031 102.906 317.477 103.077 317.017 103.417C316.562 103.753 316.213 104.202 315.968 104.764C315.73 105.321 315.61 105.929 315.61 106.588C315.61 107.315 315.707 108 315.9 108.642C316.093 109.278 316.409 109.795 316.846 110.193C317.284 110.585 317.872 110.781 318.61 110.781ZM336.895 118.145C335.923 118.145 335.088 118.02 334.389 117.77C333.69 117.525 333.108 117.202 332.642 116.798C332.182 116.4 331.815 115.974 331.543 115.52L333.145 114.395C333.327 114.633 333.557 114.906 333.835 115.213C334.114 115.525 334.494 115.795 334.977 116.023C335.466 116.256 336.105 116.372 336.895 116.372C337.952 116.372 338.824 116.116 339.511 115.605C340.199 115.094 340.543 114.292 340.543 113.202V110.542H340.372C340.224 110.781 340.014 111.077 339.741 111.429C339.474 111.775 339.088 112.085 338.582 112.358C338.082 112.625 337.406 112.758 336.554 112.758C335.497 112.758 334.548 112.508 333.707 112.008C332.872 111.508 332.21 110.781 331.722 109.827C331.239 108.872 330.997 107.713 330.997 106.349C330.997 105.008 331.233 103.841 331.705 102.846C332.176 101.846 332.832 101.074 333.673 100.528C334.514 99.9771 335.486 99.7015 336.588 99.7015C337.44 99.7015 338.116 99.8436 338.616 100.128C339.122 100.406 339.509 100.724 339.776 101.082C340.048 101.434 340.259 101.724 340.406 101.952H340.611V99.872H342.554V113.338C342.554 114.463 342.298 115.378 341.787 116.082C341.281 116.792 340.599 117.312 339.741 117.642C338.889 117.977 337.94 118.145 336.895 118.145ZM336.827 110.952C337.634 110.952 338.315 110.767 338.872 110.398C339.429 110.028 339.852 109.497 340.142 108.804C340.432 108.111 340.577 107.281 340.577 106.315C340.577 105.372 340.435 104.54 340.151 103.818C339.866 103.096 339.446 102.531 338.889 102.122C338.332 101.713 337.645 101.508 336.827 101.508C335.974 101.508 335.264 101.724 334.696 102.156C334.134 102.588 333.71 103.167 333.426 103.895C333.148 104.622 333.009 105.429 333.009 106.315C333.009 107.224 333.151 108.028 333.435 108.727C333.724 109.42 334.151 109.966 334.713 110.363C335.281 110.756 335.986 110.952 336.827 110.952ZM345.828 112.963V99.872H347.771V101.917H347.941C348.214 101.219 348.654 100.676 349.262 100.29C349.87 99.8975 350.601 99.7015 351.453 99.7015C352.316 99.7015 353.035 99.8975 353.609 100.29C354.189 100.676 354.64 101.219 354.964 101.917H355.101C355.436 101.241 355.939 100.704 356.609 100.307C357.279 99.9032 358.083 99.7015 359.021 99.7015C360.191 99.7015 361.149 100.068 361.893 100.801C362.637 101.528 363.01 102.662 363.01 104.202V112.963H360.998V104.202C360.998 103.236 360.734 102.545 360.206 102.131C359.677 101.716 359.055 101.508 358.339 101.508C357.419 101.508 356.706 101.787 356.2 102.344C355.694 102.895 355.441 103.594 355.441 104.44V112.963H353.396V103.997C353.396 103.253 353.154 102.653 352.672 102.199C352.189 101.738 351.566 101.508 350.805 101.508C350.282 101.508 349.794 101.648 349.339 101.926C348.89 102.204 348.527 102.591 348.248 103.085C347.976 103.574 347.839 104.139 347.839 104.781V112.963H345.828ZM370.131 113.27C369.302 113.27 368.549 113.113 367.873 112.801C367.197 112.483 366.66 112.025 366.262 111.429C365.864 110.827 365.666 110.099 365.666 109.247C365.666 108.497 365.813 107.889 366.109 107.423C366.404 106.952 366.799 106.582 367.293 106.315C367.788 106.048 368.333 105.849 368.93 105.719C369.532 105.582 370.137 105.474 370.745 105.395C371.541 105.292 372.185 105.216 372.68 105.165C373.18 105.108 373.543 105.014 373.771 104.883C374.004 104.753 374.12 104.525 374.12 104.202V104.133C374.12 103.292 373.89 102.639 373.43 102.173C372.975 101.707 372.285 101.474 371.359 101.474C370.398 101.474 369.646 101.684 369.1 102.105C368.555 102.525 368.171 102.974 367.95 103.452L366.041 102.77C366.381 101.974 366.836 101.355 367.404 100.912C367.978 100.463 368.603 100.15 369.279 99.9743C369.961 99.7924 370.631 99.7015 371.291 99.7015C371.711 99.7015 372.194 99.7527 372.739 99.8549C373.291 99.9515 373.822 100.153 374.333 100.46C374.85 100.767 375.279 101.23 375.62 101.849C375.961 102.469 376.131 103.298 376.131 104.338V112.963H374.12V111.19H374.018C373.881 111.474 373.654 111.778 373.336 112.102C373.018 112.426 372.594 112.702 372.066 112.929C371.538 113.156 370.893 113.27 370.131 113.27ZM370.438 111.463C371.234 111.463 371.904 111.307 372.45 110.994C373.001 110.682 373.416 110.278 373.694 109.784C373.978 109.29 374.12 108.77 374.12 108.224V106.383C374.035 106.486 373.847 106.579 373.558 106.665C373.273 106.744 372.944 106.815 372.569 106.878C372.2 106.934 371.839 106.986 371.487 107.031C371.14 107.071 370.859 107.105 370.643 107.133C370.12 107.202 369.631 107.312 369.177 107.466C368.728 107.613 368.364 107.838 368.086 108.139C367.813 108.434 367.677 108.838 367.677 109.349C367.677 110.048 367.935 110.577 368.452 110.934C368.975 111.287 369.637 111.463 370.438 111.463ZM379.395 112.963V99.872H381.406V112.963H379.395ZM380.417 97.6902C380.025 97.6902 379.687 97.5566 379.403 97.2896C379.125 97.0225 378.986 96.7015 378.986 96.3265C378.986 95.9515 379.125 95.6305 379.403 95.3635C379.687 95.0964 380.025 94.9629 380.417 94.9629C380.809 94.9629 381.145 95.0964 381.423 95.3635C381.707 95.6305 381.849 95.9515 381.849 96.3265C381.849 96.7015 381.707 97.0225 381.423 97.2896C381.145 97.5566 380.809 97.6902 380.417 97.6902ZM386.693 95.5083V112.963H384.682V95.5083H386.693ZM391.435 113.099C391.015 113.099 390.654 112.949 390.353 112.648C390.052 112.346 389.901 111.986 389.901 111.565C389.901 111.145 390.052 110.784 390.353 110.483C390.654 110.182 391.015 110.031 391.435 110.031C391.856 110.031 392.216 110.182 392.518 110.483C392.819 110.784 392.969 111.145 392.969 111.565C392.969 111.844 392.898 112.099 392.756 112.332C392.62 112.565 392.435 112.753 392.202 112.895C391.975 113.031 391.719 113.099 391.435 113.099ZM401.489 113.236C400.262 113.236 399.205 112.946 398.318 112.366C397.432 111.787 396.75 110.988 396.273 109.971C395.796 108.954 395.557 107.792 395.557 106.486C395.557 105.156 395.801 103.983 396.29 102.966C396.784 101.943 397.472 101.145 398.352 100.571C399.239 99.9913 400.273 99.7015 401.455 99.7015C402.375 99.7015 403.205 99.872 403.943 100.213C404.682 100.554 405.287 101.031 405.759 101.645C406.23 102.258 406.523 102.974 406.637 103.792H404.625C404.472 103.196 404.131 102.667 403.602 102.207C403.08 101.741 402.375 101.508 401.489 101.508C400.705 101.508 400.017 101.713 399.426 102.122C398.841 102.525 398.384 103.096 398.054 103.835C397.73 104.568 397.568 105.429 397.568 106.417C397.568 107.429 397.727 108.309 398.046 109.059C398.369 109.809 398.824 110.392 399.409 110.807C400 111.221 400.693 111.429 401.489 111.429C402.012 111.429 402.486 111.338 402.912 111.156C403.338 110.974 403.699 110.713 403.994 110.372C404.29 110.031 404.5 109.622 404.625 109.145H406.637C406.523 109.917 406.242 110.613 405.793 111.233C405.35 111.846 404.762 112.335 404.029 112.699C403.301 113.057 402.455 113.236 401.489 113.236ZM414.487 113.236C413.305 113.236 412.268 112.954 411.376 112.392C410.49 111.829 409.797 111.042 409.297 110.031C408.802 109.02 408.555 107.838 408.555 106.486C408.555 105.122 408.802 103.932 409.297 102.915C409.797 101.898 410.49 101.108 411.376 100.545C412.268 99.9828 413.305 99.7015 414.487 99.7015C415.669 99.7015 416.703 99.9828 417.589 100.545C418.481 101.108 419.175 101.898 419.669 102.915C420.169 103.932 420.419 105.122 420.419 106.486C420.419 107.838 420.169 109.02 419.669 110.031C419.175 111.042 418.481 111.829 417.589 112.392C416.703 112.954 415.669 113.236 414.487 113.236ZM414.487 111.429C415.385 111.429 416.123 111.199 416.703 110.738C417.282 110.278 417.711 109.673 417.99 108.923C418.268 108.173 418.407 107.361 418.407 106.486C418.407 105.611 418.268 104.795 417.99 104.04C417.711 103.284 417.282 102.673 416.703 102.207C416.123 101.741 415.385 101.508 414.487 101.508C413.589 101.508 412.851 101.741 412.271 102.207C411.692 102.673 411.263 103.284 410.984 104.04C410.706 104.795 410.567 105.611 410.567 106.486C410.567 107.361 410.706 108.173 410.984 108.923C411.263 109.673 411.692 110.278 412.271 110.738C412.851 111.199 413.589 111.429 414.487 111.429ZM423.081 112.963V99.872H425.024V101.917H425.195C425.468 101.219 425.908 100.676 426.516 100.29C427.124 99.8975 427.854 99.7015 428.706 99.7015C429.57 99.7015 430.289 99.8975 430.862 100.29C431.442 100.676 431.894 101.219 432.218 101.917H432.354C432.689 101.241 433.192 100.704 433.862 100.307C434.533 99.9032 435.337 99.7015 436.274 99.7015C437.445 99.7015 438.402 100.068 439.146 100.801C439.891 101.528 440.263 102.662 440.263 104.202V112.963H438.252V104.202C438.252 103.236 437.987 102.545 437.459 102.131C436.931 101.716 436.308 101.508 435.593 101.508C434.672 101.508 433.959 101.787 433.453 102.344C432.948 102.895 432.695 103.594 432.695 104.44V112.963H430.649V103.997C430.649 103.253 430.408 102.653 429.925 102.199C429.442 101.738 428.82 101.508 428.058 101.508C427.536 101.508 427.047 101.648 426.593 101.926C426.144 102.204 425.78 102.591 425.502 103.085C425.229 103.574 425.093 104.139 425.093 104.781V112.963H423.081Z" fill="#604E89"/>
<defs>
<clipPath id="clip0_98_27686">
<rect width="30" height="30" fill="white" transform="translate(50.5 78.9629)"/>
</clipPath>
<clipPath id="clip1_98_27686">
<rect width="30" height="30" fill="white" transform="translate(50.5 58.9629)"/>
</clipPath>
</defs>
</svg>
