<svg width="121" height="32" viewBox="0 0 121 32" fill="none" xmlns="http://www.w3.org/2000/svg">
<mask id="path-1-inside-1_115_11783" fill="white">
<path d="M0 15.5151C0 6.95472 6.93959 0.0151367 15.5 0.0151367H105.5C114.06 0.0151367 121 6.95472 121 15.5151C121 24.0756 114.06 31.0151 105.5 31.0151H15.5C6.93959 31.0151 0 24.0756 0 15.5151Z"/>
</mask>
<path d="M0 0.0151367H121H0ZM121 15.5151C121 25.7324 112.717 34.0151 102.5 34.0151H14C4.61116 34.0151 -3 26.404 -3 17.0151L3 15.5151C3 22.4187 8.59644 28.0151 15.5 28.0151H105.5C114.06 28.0151 121 22.4187 121 15.5151ZM14 34.0151C4.61116 34.0151 -3 26.404 -3 17.0151C-3 7.6263 4.61116 0.0151367 14 0.0151367H15.5C8.59644 0.0151367 3 6.95472 3 15.5151C3 22.4187 8.59644 28.0151 15.5 28.0151L14 34.0151ZM121 0.0151367V31.0151V0.0151367Z" fill="#7F56D9" mask="url(#path-1-inside-1_115_11783)"/>
<path d="M22.2134 16.6519C22.2134 16.9849 22.1704 17.2785 22.0845 17.5327C22.0021 17.7869 21.884 18.0072 21.73 18.1934C21.5796 18.3796 21.4006 18.5353 21.1929 18.6606C20.9852 18.786 20.7578 18.8862 20.5107 18.9614C20.2673 19.0366 20.0076 19.0903 19.7319 19.1226C19.4598 19.1548 19.1823 19.1709 18.8994 19.1709C18.527 19.1709 18.1833 19.1423 17.8682 19.085C17.5531 19.0312 17.2559 18.9453 16.9766 18.8271C16.7008 18.7054 16.4341 18.5496 16.1763 18.3599C15.922 18.1701 15.6678 17.9391 15.4136 17.667L16.5093 16.5552C16.6095 16.8022 16.7474 17.0314 16.9229 17.2427C17.0983 17.4504 17.2899 17.6294 17.4976 17.7798C17.7088 17.9302 17.9272 18.0483 18.1528 18.1343C18.3784 18.2202 18.5915 18.2632 18.792 18.2632C19.0283 18.2632 19.2503 18.2471 19.458 18.2148C19.6657 18.179 19.8465 18.1217 20.0005 18.043C20.1545 17.9642 20.2744 17.8604 20.3604 17.7314C20.4499 17.599 20.4946 17.4342 20.4946 17.2373C20.4946 17.0869 20.4606 16.958 20.3926 16.8506C20.3245 16.7432 20.235 16.6519 20.124 16.5767C20.0166 16.4979 19.8931 16.4316 19.7534 16.3779C19.6138 16.3242 19.4705 16.2795 19.3237 16.2437C19.1805 16.2043 19.0391 16.1702 18.8994 16.1416C18.7598 16.1094 18.6362 16.0771 18.5288 16.0449C18.3175 15.984 18.0973 15.9196 17.8682 15.8516C17.639 15.7799 17.4134 15.6994 17.1914 15.6099C16.9694 15.5203 16.7581 15.4183 16.5576 15.3037C16.3607 15.1855 16.187 15.0477 16.0366 14.8901C15.8862 14.729 15.7663 14.5446 15.6768 14.3369C15.5872 14.1257 15.5425 13.884 15.5425 13.6118C15.5425 13.286 15.5819 12.9977 15.6606 12.7471C15.743 12.4928 15.8576 12.2726 16.0044 12.0864C16.1512 11.9002 16.3249 11.7445 16.5254 11.6191C16.7259 11.4902 16.9461 11.3882 17.186 11.313C17.4259 11.2342 17.6802 11.1787 17.9487 11.1465C18.2209 11.1107 18.4984 11.0928 18.7812 11.0928C19.168 11.0928 19.5189 11.1286 19.834 11.2002C20.1527 11.2718 20.4463 11.3739 20.7148 11.5063C20.9834 11.6388 21.2287 11.7982 21.4507 11.9844C21.6763 12.167 21.8875 12.3711 22.0845 12.5967L20.9888 13.7085C20.9028 13.4507 20.7829 13.2179 20.6289 13.0103C20.4785 12.8026 20.3102 12.6253 20.124 12.4785C19.9378 12.3281 19.7427 12.2135 19.5386 12.1348C19.3345 12.0524 19.1375 12.0112 18.9478 12.0112C18.7007 12.0112 18.4733 12.0291 18.2656 12.0649C18.0579 12.0972 17.8789 12.1527 17.7285 12.2314C17.5817 12.3066 17.4671 12.4105 17.3848 12.543C17.3024 12.6719 17.2612 12.833 17.2612 13.0264C17.2612 13.1803 17.2917 13.311 17.3525 13.4185C17.4134 13.5259 17.494 13.6172 17.5942 13.6924C17.6981 13.7676 17.8145 13.8302 17.9434 13.8804C18.0723 13.9269 18.2048 13.9681 18.3408 14.0039C18.4805 14.0397 18.6165 14.0719 18.749 14.1006C18.8851 14.1257 19.0086 14.1543 19.1196 14.1865C19.3345 14.2474 19.5601 14.3118 19.7964 14.3799C20.0327 14.4479 20.2655 14.5285 20.4946 14.6216C20.7238 14.7111 20.9422 14.8149 21.1499 14.9331C21.3576 15.0513 21.5402 15.1927 21.6978 15.3574C21.8553 15.5186 21.9806 15.7065 22.0737 15.9214C22.1668 16.1326 22.2134 16.3761 22.2134 16.6519ZM25.2697 19.0151H23.4489V13.5312H22.321V12.8115H23.4489V10.5288H25.2697V12.8115H27.1496V13.5312H25.2697V19.0151ZM32.8593 13.3594L31.8388 15.0513C31.7958 14.908 31.7403 14.7469 31.6723 14.5679C31.6042 14.3888 31.5201 14.2223 31.4198 14.0684C31.3196 13.9108 31.1996 13.7801 31.06 13.6763C30.9203 13.5688 30.7592 13.5151 30.5766 13.5151C30.4083 13.5151 30.2615 13.5581 30.1361 13.644C30.0144 13.73 29.9106 13.8428 29.8246 13.9824C29.7387 14.1185 29.6671 14.2743 29.6098 14.4497C29.5561 14.6216 29.5131 14.797 29.4809 14.9761C29.4522 15.1515 29.4325 15.3216 29.4218 15.4863C29.4111 15.6475 29.4057 15.7871 29.4057 15.9053V19.0151H27.5849V12.8115H28.2831L29.019 14.2563C29.1192 14.0236 29.2338 13.8105 29.3627 13.6172C29.4916 13.4202 29.6402 13.252 29.8085 13.1123C29.9768 12.9691 30.1666 12.8581 30.3778 12.7793C30.5927 12.7005 30.8344 12.6611 31.1029 12.6611C31.2426 12.6611 31.3984 12.6737 31.5702 12.6987C31.7421 12.7202 31.9104 12.7596 32.0751 12.8169C32.2398 12.8706 32.392 12.9422 32.5317 13.0317C32.6713 13.1213 32.7805 13.2305 32.8593 13.3594ZM34.546 16.0718C34.768 16.1219 34.99 16.1613 35.212 16.1899C35.434 16.2186 35.6578 16.2329 35.8834 16.2329C36.1198 16.2329 36.3382 16.2114 36.5387 16.1685C36.7428 16.1219 36.9183 16.0467 37.0651 15.9429C37.2155 15.8354 37.3336 15.694 37.4196 15.5186C37.5055 15.3431 37.5485 15.1247 37.5485 14.8633C37.5485 14.652 37.5198 14.4587 37.4625 14.2832C37.4052 14.1077 37.3193 13.9574 37.2047 13.832C37.0937 13.7067 36.9559 13.61 36.7911 13.542C36.6264 13.4704 36.4349 13.4346 36.2164 13.4346C36.0123 13.4346 35.8279 13.4722 35.6632 13.5474C35.5021 13.6226 35.3588 13.7246 35.2335 13.8535C35.1118 13.9788 35.0061 14.1257 34.9166 14.2939C34.8307 14.4622 34.7591 14.6377 34.7018 14.8203C34.6445 15.0029 34.6033 15.1873 34.5782 15.3735C34.5532 15.5597 34.5406 15.7352 34.5406 15.8999C34.5406 15.9285 34.5406 15.9572 34.5406 15.9858C34.5406 16.0145 34.5424 16.0431 34.546 16.0718ZM39.0201 14.8472C39.0201 15.1014 38.979 15.3288 38.8966 15.5293C38.8142 15.7262 38.7015 15.8999 38.5582 16.0503C38.4186 16.2007 38.2557 16.3278 38.0695 16.4316C37.8833 16.5355 37.6845 16.6214 37.4733 16.6895C37.262 16.7539 37.0436 16.8005 36.818 16.8291C36.596 16.8577 36.3794 16.8721 36.1681 16.8721C35.8995 16.8721 35.6346 16.8542 35.3732 16.8184C35.1118 16.779 34.854 16.7181 34.5997 16.6357C34.6391 16.8721 34.7018 17.0977 34.7877 17.3125C34.8737 17.5238 34.9882 17.71 35.1315 17.8711C35.2747 18.0286 35.4502 18.154 35.6578 18.2471C35.8691 18.3402 36.118 18.3867 36.4044 18.3867C36.5942 18.3867 36.775 18.3581 36.9469 18.3008C37.1188 18.2435 37.2763 18.1629 37.4196 18.0591C37.5628 17.9552 37.6881 17.8317 37.7955 17.6885C37.9065 17.5452 37.9961 17.3859 38.0641 17.2104L38.8483 17.5005C38.7301 17.7834 38.5672 18.0286 38.3595 18.2363C38.1554 18.4404 37.9226 18.6105 37.6613 18.7466C37.4034 18.8791 37.1277 18.9775 36.8341 19.042C36.5441 19.1064 36.2558 19.1387 35.9694 19.1387C35.4967 19.1387 35.0599 19.0599 34.6588 18.9023C34.2578 18.7412 33.9122 18.5174 33.6222 18.231C33.3322 17.9445 33.1048 17.6025 32.9401 17.2051C32.7753 16.8076 32.693 16.3726 32.693 15.8999C32.693 15.4272 32.7753 14.9922 32.9401 14.5947C33.1048 14.1973 33.3322 13.8553 33.6222 13.5688C33.9122 13.2824 34.2578 13.0604 34.6588 12.9028C35.0599 12.7417 35.4967 12.6611 35.9694 12.6611C36.1985 12.6611 36.4331 12.6772 36.673 12.7095C36.9129 12.7417 37.1456 12.7936 37.3712 12.8652C37.5968 12.9333 37.8099 13.0228 38.0104 13.1338C38.2109 13.2448 38.3846 13.3826 38.5314 13.5474C38.6818 13.7085 38.7999 13.8965 38.8859 14.1113C38.9754 14.3262 39.0201 14.5715 39.0201 14.8472ZM45.992 19.0151H44.1766V18.2739C43.9618 18.5675 43.7021 18.786 43.3978 18.9292C43.097 19.0688 42.7658 19.1387 42.4041 19.1387C41.9315 19.1387 41.509 19.0545 41.1366 18.8862C40.7642 18.7179 40.4491 18.4888 40.1912 18.1987C39.9334 17.9051 39.7365 17.5614 39.6004 17.1675C39.4644 16.7736 39.3963 16.3511 39.3963 15.8999C39.3963 15.4487 39.4644 15.0262 39.6004 14.6323C39.7365 14.2384 39.9334 13.8965 40.1912 13.6064C40.4491 13.3128 40.7642 13.0819 41.1366 12.9136C41.509 12.7453 41.9315 12.6611 42.4041 12.6611C42.644 12.6611 42.8714 12.6969 43.0863 12.7686C43.3047 12.8402 43.5034 12.9422 43.6825 13.0747C43.8651 13.2036 44.0244 13.3612 44.1605 13.5474C44.3001 13.73 44.4093 13.9341 44.4881 14.1597L45.2938 12.8115H45.992V19.0151ZM44.1659 15.8999C44.1659 15.7388 44.1569 15.5687 44.139 15.3896C44.1247 15.2106 44.0978 15.0334 44.0584 14.8579C44.019 14.6825 43.9635 14.516 43.8919 14.3584C43.8239 14.1973 43.7344 14.0558 43.6234 13.9341C43.5159 13.8088 43.3853 13.7103 43.2313 13.6387C43.0773 13.5671 42.8983 13.5312 42.6942 13.5312C42.4901 13.5312 42.3128 13.5688 42.1624 13.644C42.012 13.7157 41.8831 13.8141 41.7757 13.9395C41.6683 14.0612 41.5788 14.2026 41.5072 14.3638C41.4391 14.5249 41.3854 14.6932 41.346 14.8687C41.3066 15.0441 41.278 15.2214 41.2601 15.4004C41.2458 15.5758 41.2386 15.7424 41.2386 15.8999C41.2386 16.0575 41.2458 16.2257 41.2601 16.4048C41.278 16.5838 41.3066 16.7611 41.346 16.9365C41.3854 17.112 41.4391 17.2803 41.5072 17.4414C41.5788 17.6025 41.6683 17.7458 41.7757 17.8711C41.8831 17.9928 42.012 18.0913 42.1624 18.1665C42.3128 18.2381 42.4901 18.2739 42.6942 18.2739C42.8804 18.2739 43.0451 18.2363 43.1883 18.1611C43.3351 18.0824 43.4622 17.9785 43.5697 17.8496C43.6807 17.7207 43.7738 17.5739 43.849 17.4092C43.9242 17.2445 43.985 17.0744 44.0316 16.8989C44.0781 16.7235 44.1121 16.5498 44.1336 16.3779C44.1551 16.2025 44.1659 16.0431 44.1659 15.8999ZM56.7022 15.395C56.7022 15.8211 56.6521 16.2651 56.5518 16.7271C56.4515 17.189 56.3101 17.6401 56.1275 18.0806C55.9484 18.5174 55.7318 18.931 55.4776 19.3213C55.2233 19.7116 54.9405 20.05 54.6289 20.3364L53.9468 19.9658C54.0507 19.7796 54.1455 19.5701 54.2315 19.3374C54.3174 19.1047 54.3962 18.8594 54.4678 18.6016C54.5394 18.3438 54.6021 18.0788 54.6558 17.8066C54.7095 17.5345 54.7543 17.2642 54.7901 16.9956C54.8295 16.7235 54.8581 16.4603 54.876 16.2061C54.8939 15.9518 54.9029 15.7137 54.9029 15.4917C54.9029 15.3664 54.8993 15.2303 54.8921 15.0835C54.885 14.9367 54.8689 14.7899 54.8438 14.6431C54.8223 14.4963 54.7883 14.3566 54.7417 14.2241C54.6952 14.0881 54.6307 13.9681 54.5484 13.8643C54.4696 13.7568 54.3693 13.6727 54.2476 13.6118C54.1294 13.5474 53.9862 13.5151 53.8179 13.5151C53.6532 13.5151 53.5118 13.5599 53.3936 13.6494C53.279 13.7354 53.1805 13.8481 53.0982 13.9878C53.0158 14.1274 52.9496 14.285 52.8995 14.4604C52.8529 14.6359 52.8171 14.8132 52.792 14.9922C52.767 15.1676 52.7491 15.3359 52.7383 15.4971C52.7312 15.6582 52.7276 15.7943 52.7276 15.9053V19.0151H50.9175V16.1255C50.9175 16.0002 50.9193 15.8498 50.9229 15.6743C50.9265 15.4953 50.9211 15.3091 50.9068 15.1157C50.896 14.9224 50.8728 14.7308 50.837 14.541C50.8047 14.3477 50.751 14.1758 50.6758 14.0254C50.6042 13.875 50.5057 13.7533 50.3804 13.6602C50.2551 13.5635 50.0975 13.5151 49.9078 13.5151C49.7466 13.5151 49.6106 13.5599 49.4995 13.6494C49.3921 13.7389 49.3008 13.8553 49.2256 13.9985C49.154 14.1382 49.0967 14.2975 49.0537 14.4766C49.0144 14.652 48.9839 14.8293 48.9624 15.0083C48.9445 15.1838 48.9338 15.3521 48.9302 15.5132C48.9266 15.6707 48.9248 15.8014 48.9248 15.9053V19.0151H47.104V12.8115H47.8023L48.4683 14.2563C48.6187 13.755 48.855 13.3647 49.1773 13.0854C49.5031 12.8026 49.9346 12.6611 50.4717 12.6611C50.9551 12.6611 51.3562 12.7614 51.6748 12.9619C51.9935 13.1624 52.2442 13.4883 52.4268 13.9395C52.5306 13.7425 52.6452 13.5653 52.7705 13.4077C52.8995 13.2502 53.0409 13.1159 53.1949 13.0049C53.3524 12.8939 53.5261 12.8097 53.7159 12.7524C53.9056 12.6916 54.1151 12.6611 54.3443 12.6611C54.7668 12.6611 55.1267 12.731 55.4239 12.8706C55.7246 13.0067 55.9699 13.1965 56.1597 13.4399C56.3495 13.6834 56.4873 13.9735 56.5733 14.3101C56.6592 14.6431 56.7022 15.0047 56.7022 15.395ZM67.4502 16.915C67.4502 17.1335 67.4143 17.3376 67.3427 17.5273C67.2711 17.7171 67.1726 17.8908 67.0473 18.0483C66.922 18.2023 66.7752 18.3402 66.6069 18.4619C66.4422 18.5837 66.2631 18.6857 66.0698 18.7681C65.88 18.8504 65.6831 18.9131 65.479 18.9561C65.2749 18.9954 65.0743 19.0151 64.8774 19.0151H60.3281V11.2808H64.4853C64.6679 11.2808 64.8595 11.2951 65.06 11.3237C65.2605 11.3488 65.4557 11.39 65.6455 11.4473C65.8388 11.5046 66.0214 11.5798 66.1933 11.6729C66.3688 11.766 66.521 11.8805 66.6499 12.0166C66.7823 12.1491 66.8862 12.3031 66.9614 12.4785C67.0402 12.654 67.0795 12.8545 67.0795 13.0801C67.0795 13.2949 67.0366 13.4901 66.9506 13.6655C66.8647 13.841 66.7483 13.9985 66.6015 14.1382C66.4583 14.2743 66.2918 14.396 66.102 14.5034C65.9158 14.6073 65.7189 14.6986 65.5112 14.7773C65.7726 14.849 66.0197 14.9438 66.2524 15.062C66.4887 15.1802 66.6946 15.3252 66.8701 15.4971C67.0491 15.6689 67.1906 15.873 67.2944 16.1094C67.3982 16.3421 67.4502 16.6107 67.4502 16.915ZM64.915 13.2681C64.915 12.8312 64.7986 12.5125 64.5659 12.312C64.3367 12.1115 64.0091 12.0112 63.583 12.0112H62.4604V14.5195H63.4003C63.5937 14.5195 63.7817 14.4963 63.9643 14.4497C64.1469 14.3996 64.3081 14.3244 64.4477 14.2241C64.5909 14.1203 64.7037 13.9896 64.7861 13.832C64.872 13.6745 64.915 13.4865 64.915 13.2681ZM65.291 16.7808C65.291 16.5695 65.2641 16.3726 65.2104 16.1899C65.1567 16.0037 65.0743 15.8444 64.9633 15.7119C64.8523 15.5758 64.7127 15.4702 64.5444 15.395C64.3797 15.3162 64.1845 15.2769 63.9589 15.2769H62.4604V18.2632H63.771C63.9894 18.2632 64.1917 18.2274 64.3779 18.1558C64.5641 18.0841 64.7252 17.9839 64.8613 17.855C64.9974 17.7261 65.103 17.5703 65.1782 17.3877C65.2534 17.2051 65.291 17.0028 65.291 16.7808ZM74.3844 19.0151H72.569V18.2739C72.3542 18.5675 72.0946 18.786 71.7902 18.9292C71.4894 19.0688 71.1582 19.1387 70.7965 19.1387C70.3239 19.1387 69.9014 19.0545 69.529 18.8862C69.1566 18.7179 68.8415 18.4888 68.5837 18.1987C68.3258 17.9051 68.1289 17.5614 67.9928 17.1675C67.8568 16.7736 67.7887 16.3511 67.7887 15.8999C67.7887 15.4487 67.8568 15.0262 67.9928 14.6323C68.1289 14.2384 68.3258 13.8965 68.5837 13.6064C68.8415 13.3128 69.1566 13.0819 69.529 12.9136C69.9014 12.7453 70.3239 12.6611 70.7965 12.6611C71.0365 12.6611 71.2638 12.6969 71.4787 12.7686C71.6971 12.8402 71.8958 12.9422 72.0749 13.0747C72.2575 13.2036 72.4168 13.3612 72.5529 13.5474C72.6925 13.73 72.8018 13.9341 72.8805 14.1597L73.6862 12.8115H74.3844V19.0151ZM72.5583 15.8999C72.5583 15.7388 72.5493 15.5687 72.5314 15.3896C72.5171 15.2106 72.4902 15.0334 72.4508 14.8579C72.4115 14.6825 72.356 14.516 72.2843 14.3584C72.2163 14.1973 72.1268 14.0558 72.0158 13.9341C71.9084 13.8088 71.7777 13.7103 71.6237 13.6387C71.4697 13.5671 71.2907 13.5312 71.0866 13.5312C70.8825 13.5312 70.7052 13.5688 70.5548 13.644C70.4045 13.7157 70.2756 13.8141 70.1681 13.9395C70.0607 14.0612 69.9712 14.2026 69.8996 14.3638C69.8315 14.5249 69.7778 14.6932 69.7384 14.8687C69.6991 15.0441 69.6704 15.2214 69.6525 15.4004C69.6382 15.5758 69.631 15.7424 69.631 15.8999C69.631 16.0575 69.6382 16.2257 69.6525 16.4048C69.6704 16.5838 69.6991 16.7611 69.7384 16.9365C69.7778 17.112 69.8315 17.2803 69.8996 17.4414C69.9712 17.6025 70.0607 17.7458 70.1681 17.8711C70.2756 17.9928 70.4045 18.0913 70.5548 18.1665C70.7052 18.2381 70.8825 18.2739 71.0866 18.2739C71.2728 18.2739 71.4375 18.2363 71.5807 18.1611C71.7275 18.0824 71.8547 17.9785 71.9621 17.8496C72.0731 17.7207 72.1662 17.5739 72.2414 17.4092C72.3166 17.2445 72.3774 17.0744 72.424 16.8989C72.4705 16.7235 72.5046 16.5498 72.526 16.3779C72.5475 16.2025 72.5583 16.0431 72.5583 15.8999ZM80.7709 13.3594L79.7504 15.0513C79.7074 14.908 79.6519 14.7469 79.5839 14.5679C79.5158 14.3888 79.4317 14.2223 79.3314 14.0684C79.2312 13.9108 79.1112 13.7801 78.9716 13.6763C78.8319 13.5688 78.6708 13.5151 78.4882 13.5151C78.3199 13.5151 78.1731 13.5581 78.0477 13.644C77.926 13.73 77.8221 13.8428 77.7362 13.9824C77.6503 14.1185 77.5787 14.2743 77.5214 14.4497C77.4676 14.6216 77.4247 14.797 77.3925 14.9761C77.3638 15.1515 77.3441 15.3216 77.3334 15.4863C77.3226 15.6475 77.3173 15.7871 77.3173 15.9053V19.0151H75.4965V12.8115H76.1947L76.9305 14.2563C77.0308 14.0236 77.1454 13.8105 77.2743 13.6172C77.4032 13.4202 77.5518 13.252 77.7201 13.1123C77.8884 12.9691 78.0782 12.8581 78.2894 12.7793C78.5043 12.7005 78.746 12.6611 79.0145 12.6611C79.1542 12.6611 79.3099 12.6737 79.4818 12.6987C79.6537 12.7202 79.822 12.7596 79.9867 12.8169C80.1514 12.8706 80.3036 12.9422 80.4432 13.0317C80.5829 13.1213 80.6921 13.2305 80.7709 13.3594ZM87.2325 18.2686C87.2325 18.7627 87.1591 19.2282 87.0123 19.665C86.8655 20.1019 86.6524 20.4832 86.3731 20.8091C86.0938 21.1385 85.7501 21.3981 85.3419 21.5879C84.9373 21.7812 84.4753 21.8779 83.9561 21.8779C83.6697 21.8779 83.3796 21.8457 83.086 21.7812C82.796 21.7168 82.5203 21.6165 82.2589 21.4805C82.0011 21.348 81.7683 21.1779 81.5606 20.9702C81.3565 20.7661 81.1954 20.5244 81.0772 20.2451L81.8614 19.9497C81.9294 20.1252 82.0172 20.2863 82.1246 20.4331C82.2356 20.5799 82.3627 20.7052 82.5059 20.8091C82.6492 20.9165 82.8067 20.9989 82.9786 21.0562C83.1505 21.117 83.3313 21.1475 83.5211 21.1475C83.8791 21.1475 84.1781 21.0741 84.418 20.9272C84.6615 20.7804 84.8567 20.5889 85.0035 20.3525C85.1503 20.1162 85.2559 19.8477 85.3204 19.5469C85.3848 19.2497 85.4171 18.9471 85.4171 18.6392V18.2739C85.2022 18.5675 84.9426 18.786 84.6383 18.9292C84.3375 19.0688 84.0063 19.1387 83.6446 19.1387C83.172 19.1387 82.7494 19.0545 82.377 18.8862C82.0046 18.7179 81.6895 18.4888 81.4317 18.1987C81.1739 17.9051 80.977 17.5614 80.8409 17.1675C80.7048 16.7736 80.6368 16.3511 80.6368 15.8999C80.6368 15.4487 80.7048 15.0262 80.8409 14.6323C80.977 14.2384 81.1739 13.8965 81.4317 13.6064C81.6895 13.3128 82.0046 13.0819 82.377 12.9136C82.7494 12.7453 83.172 12.6611 83.6446 12.6611C83.8845 12.6611 84.1119 12.6969 84.3267 12.7686C84.5452 12.8402 84.7439 12.9422 84.9229 13.0747C85.1055 13.2036 85.2649 13.3612 85.401 13.5474C85.5406 13.73 85.6498 13.9341 85.7286 14.1597L86.5343 12.8115H87.2325V18.2686ZM85.4063 15.8999C85.4063 15.7388 85.3974 15.5687 85.3795 15.3896C85.3651 15.2106 85.3383 15.0334 85.2989 14.8579C85.2595 14.6825 85.204 14.516 85.1324 14.3584C85.0644 14.1973 84.9748 14.0558 84.8638 13.9341C84.7564 13.8088 84.6257 13.7103 84.4718 13.6387C84.3178 13.5671 84.1387 13.5312 83.9346 13.5312C83.7305 13.5312 83.5533 13.5688 83.4029 13.644C83.2525 13.7157 83.1236 13.8141 83.0162 13.9395C82.9088 14.0612 82.8192 14.2026 82.7476 14.3638C82.6796 14.5249 82.6259 14.6932 82.5865 14.8687C82.5471 15.0441 82.5185 15.2214 82.5006 15.4004C82.4862 15.5758 82.4791 15.7424 82.4791 15.8999C82.4791 16.0575 82.4862 16.2257 82.5006 16.4048C82.5185 16.5838 82.5471 16.7611 82.5865 16.9365C82.6259 17.112 82.6796 17.2803 82.7476 17.4414C82.8192 17.6025 82.9088 17.7458 83.0162 17.8711C83.1236 17.9928 83.2525 18.0913 83.4029 18.1665C83.5533 18.2381 83.7305 18.2739 83.9346 18.2739C84.1208 18.2739 84.2856 18.2363 84.4288 18.1611C84.5756 18.0824 84.7027 17.9785 84.8101 17.8496C84.9211 17.7207 85.0142 17.5739 85.0894 17.4092C85.1646 17.2445 85.2255 17.0744 85.272 16.8989C85.3186 16.7235 85.3526 16.5498 85.3741 16.3779C85.3956 16.2025 85.4063 16.0431 85.4063 15.8999ZM94.5911 19.0151H92.7757V18.2739C92.5608 18.5675 92.3012 18.786 91.9969 18.9292C91.6961 19.0688 91.3649 19.1387 91.0032 19.1387C90.5306 19.1387 90.108 19.0545 89.7356 18.8862C89.3632 18.7179 89.0481 18.4888 88.7903 18.1987C88.5325 17.9051 88.3356 17.5614 88.1995 17.1675C88.0634 16.7736 87.9954 16.3511 87.9954 15.8999C87.9954 15.4487 88.0634 15.0262 88.1995 14.6323C88.3356 14.2384 88.5325 13.8965 88.7903 13.6064C89.0481 13.3128 89.3632 13.0819 89.7356 12.9136C90.108 12.7453 90.5306 12.6611 91.0032 12.6611C91.2431 12.6611 91.4705 12.6969 91.6853 12.7686C91.9038 12.8402 92.1025 12.9422 92.2815 13.0747C92.4641 13.2036 92.6235 13.3612 92.7596 13.5474C92.8992 13.73 93.0084 13.9341 93.0872 14.1597L93.8929 12.8115H94.5911V19.0151ZM92.7649 15.8999C92.7649 15.7388 92.756 15.5687 92.7381 15.3896C92.7238 15.2106 92.6969 15.0334 92.6575 14.8579C92.6181 14.6825 92.5626 14.516 92.491 14.3584C92.423 14.1973 92.3335 14.0558 92.2225 13.9341C92.115 13.8088 91.9843 13.7103 91.8304 13.6387C91.6764 13.5671 91.4974 13.5312 91.2933 13.5312C91.0891 13.5312 90.9119 13.5688 90.7615 13.644C90.6111 13.7157 90.4822 13.8141 90.3748 13.9395C90.2674 14.0612 90.1779 14.2026 90.1062 14.3638C90.0382 14.5249 89.9845 14.6932 89.9451 14.8687C89.9057 15.0441 89.8771 15.2214 89.8592 15.4004C89.8448 15.5758 89.8377 15.7424 89.8377 15.8999C89.8377 16.0575 89.8448 16.2257 89.8592 16.4048C89.8771 16.5838 89.9057 16.7611 89.9451 16.9365C89.9845 17.112 90.0382 17.2803 90.1062 17.4414C90.1779 17.6025 90.2674 17.7458 90.3748 17.8711C90.4822 17.9928 90.6111 18.0913 90.7615 18.1665C90.9119 18.2381 91.0891 18.2739 91.2933 18.2739C91.4794 18.2739 91.6442 18.2363 91.7874 18.1611C91.9342 18.0824 92.0613 17.9785 92.1687 17.8496C92.2797 17.7207 92.3728 17.5739 92.448 17.4092C92.5232 17.2445 92.5841 17.0744 92.6307 16.8989C92.6772 16.7235 92.7112 16.5498 92.7327 16.3779C92.7542 16.2025 92.7649 16.0431 92.7649 15.8999ZM97.6099 11.313C97.6099 11.4491 97.583 11.578 97.5293 11.6997C97.4792 11.8215 97.4093 11.9271 97.3198 12.0166C97.2303 12.1061 97.1247 12.1777 97.0029 12.2314C96.8812 12.2816 96.7523 12.3066 96.6162 12.3066C96.4801 12.3066 96.3512 12.2816 96.2295 12.2314C96.1113 12.1777 96.0075 12.1061 95.918 12.0166C95.8285 11.9271 95.7568 11.8215 95.7031 11.6997C95.653 11.578 95.6279 11.4491 95.6279 11.313C95.6279 11.1769 95.653 11.0498 95.7031 10.9316C95.7568 10.8099 95.8285 10.7043 95.918 10.6147C96.0075 10.5252 96.1113 10.4554 96.2295 10.4053C96.3512 10.3516 96.4801 10.3247 96.6162 10.3247C96.7523 10.3247 96.8812 10.3516 97.0029 10.4053C97.1247 10.4554 97.2303 10.5252 97.3198 10.6147C97.4093 10.7043 97.4792 10.8099 97.5293 10.9316C97.583 11.0498 97.6099 11.1769 97.6099 11.313ZM97.5293 19.0151H95.7085V12.8169H97.5293V19.0151ZM104.99 15.4595C104.99 15.8784 104.938 16.3153 104.834 16.77C104.734 17.2248 104.592 17.6706 104.41 18.1074C104.227 18.5443 104.009 18.9543 103.755 19.3374C103.5 19.7241 103.221 20.0571 102.917 20.3364L102.235 19.9658C102.331 19.7868 102.423 19.5863 102.508 19.3643C102.594 19.1423 102.671 18.9077 102.739 18.6606C102.811 18.41 102.874 18.1522 102.927 17.8872C102.985 17.6222 103.031 17.3608 103.067 17.103C103.106 16.8416 103.135 16.5892 103.153 16.3457C103.175 16.0986 103.185 15.8695 103.185 15.6582C103.185 15.5186 103.18 15.37 103.169 15.2124C103.158 15.0513 103.135 14.8919 103.099 14.7344C103.067 14.5732 103.022 14.4193 102.965 14.2725C102.908 14.1257 102.831 13.9967 102.734 13.8857C102.641 13.7747 102.526 13.6852 102.39 13.6172C102.258 13.5492 102.1 13.5151 101.918 13.5151C101.739 13.5151 101.579 13.5563 101.44 13.6387C101.3 13.7174 101.176 13.8231 101.069 13.9556C100.962 14.0845 100.869 14.2331 100.79 14.4014C100.715 14.5697 100.652 14.7433 100.602 14.9224C100.555 15.0978 100.521 15.2715 100.5 15.4434C100.478 15.6152 100.467 15.7692 100.467 15.9053V19.0151H98.6467V12.8115H99.3449L100.177 14.2563C100.278 14.0164 100.403 13.798 100.553 13.6011C100.704 13.4041 100.874 13.2358 101.064 13.0962C101.253 12.9565 101.463 12.8491 101.692 12.7739C101.925 12.6987 102.175 12.6611 102.444 12.6611C102.874 12.6611 103.248 12.731 103.567 12.8706C103.885 13.0103 104.15 13.2054 104.362 13.4561C104.573 13.7031 104.73 13.9985 104.834 14.3423C104.938 14.6825 104.99 15.0549 104.99 15.4595Z" fill="#070015"/>
</svg>
