<svg width="234" height="53" viewBox="0 0 234 53" fill="none" xmlns="http://www.w3.org/2000/svg">
<mask id="path-1-inside-1_31_4" fill="white">
<path d="M0 26.5C0 11.8645 11.8645 0 26.5 0H207.5C222.136 0 234 11.8645 234 26.5C234 41.1355 222.136 53 207.5 53H26.5C11.8645 53 0 41.1355 0 26.5Z"/>
</mask>
<path d="M0 0H234H0ZM234 26.5C234 43.897 219.897 58 202.5 58H24C7.98374 58 -5 45.0163 -5 29L5 26.5C5 38.3741 14.6259 48 26.5 48H207.5C222.136 48 234 38.3741 234 26.5ZM24 58C7.98374 58 -5 45.0163 -5 29C-5 12.9837 7.98374 0 24 0H26.5C14.6259 0 5 11.8645 5 26.5C5 38.3741 14.6259 48 26.5 48L24 58ZM234 0V53V0Z" fill="#7F56D9" mask="url(#path-1-inside-1_31_4)"/>
<path d="M30.7383 27.8438C30.7383 28.5703 30.6445 29.2109 30.457 29.7656C30.2773 30.3203 30.0195 30.8008 29.6836 31.207C29.3555 31.6133 28.9648 31.9531 28.5117 32.2266C28.0586 32.5 27.5625 32.7188 27.0234 32.8828C26.4922 33.0469 25.9258 33.1641 25.3242 33.2344C24.7305 33.3047 24.125 33.3398 23.5078 33.3398C22.6953 33.3398 21.9453 33.2773 21.2578 33.1523C20.5703 33.0352 19.9219 32.8477 19.3125 32.5898C18.7109 32.3242 18.1289 31.9844 17.5664 31.5703C17.0117 31.1562 16.457 30.6523 15.9023 30.0586L18.293 27.6328C18.5117 28.1719 18.8125 28.6719 19.1953 29.1328C19.5781 29.5859 19.9961 29.9766 20.4492 30.3047C20.9102 30.6328 21.3867 30.8906 21.8789 31.0781C22.3711 31.2656 22.8359 31.3594 23.2734 31.3594C23.7891 31.3594 24.2734 31.3242 24.7266 31.2539C25.1797 31.1758 25.5742 31.0508 25.9102 30.8789C26.2461 30.707 26.5078 30.4805 26.6953 30.1992C26.8906 29.9102 26.9883 29.5508 26.9883 29.1211C26.9883 28.793 26.9141 28.5117 26.7656 28.2773C26.6172 28.043 26.4219 27.8438 26.1797 27.6797C25.9453 27.5078 25.6758 27.3633 25.3711 27.2461C25.0664 27.1289 24.7539 27.0312 24.4336 26.9531C24.1211 26.8672 23.8125 26.793 23.5078 26.7305C23.2031 26.6602 22.9336 26.5898 22.6992 26.5195C22.2383 26.3867 21.7578 26.2461 21.2578 26.0977C20.7578 25.9414 20.2656 25.7656 19.7812 25.5703C19.2969 25.375 18.8359 25.1523 18.3984 24.9023C17.9688 24.6445 17.5898 24.3438 17.2617 24C16.9336 23.6484 16.6719 23.2461 16.4766 22.793C16.2812 22.332 16.1836 21.8047 16.1836 21.2109C16.1836 20.5 16.2695 19.8711 16.4414 19.3242C16.6211 18.7695 16.8711 18.2891 17.1914 17.8828C17.5117 17.4766 17.8906 17.1367 18.3281 16.8633C18.7656 16.582 19.2461 16.3594 19.7695 16.1953C20.293 16.0234 20.8477 15.9023 21.4336 15.832C22.0273 15.7539 22.6328 15.7148 23.25 15.7148C24.0938 15.7148 24.8594 15.793 25.5469 15.9492C26.2422 16.1055 26.8828 16.3281 27.4688 16.6172C28.0547 16.9062 28.5898 17.2539 29.0742 17.6602C29.5664 18.0586 30.0273 18.5039 30.457 18.9961L28.0664 21.4219C27.8789 20.8594 27.6172 20.3516 27.2812 19.8984C26.9531 19.4453 26.5859 19.0586 26.1797 18.7383C25.7734 18.4102 25.3477 18.1602 24.9023 17.9883C24.457 17.8086 24.0273 17.7188 23.6133 17.7188C23.0742 17.7188 22.5781 17.7578 22.125 17.8359C21.6719 17.9062 21.2812 18.0273 20.9531 18.1992C20.6328 18.3633 20.3828 18.5898 20.2031 18.8789C20.0234 19.1602 19.9336 19.5117 19.9336 19.9336C19.9336 20.2695 20 20.5547 20.1328 20.7891C20.2656 21.0234 20.4414 21.2227 20.6602 21.3867C20.8867 21.5508 21.1406 21.6875 21.4219 21.7969C21.7031 21.8984 21.9922 21.9883 22.2891 22.0664C22.5938 22.1445 22.8906 22.2148 23.1797 22.2773C23.4766 22.332 23.7461 22.3945 23.9883 22.4648C24.457 22.5977 24.9492 22.7383 25.4648 22.8867C25.9805 23.0352 26.4883 23.2109 26.9883 23.4141C27.4883 23.6094 27.9648 23.8359 28.418 24.0938C28.8711 24.3516 29.2695 24.6602 29.6133 25.0195C29.957 25.3711 30.2305 25.7812 30.4336 26.25C30.6367 26.7109 30.7383 27.2422 30.7383 27.8438ZM37.8889 33H33.9162V21.0352H31.4553V19.4648H33.9162V14.4844H37.8889V19.4648H41.9904V21.0352H37.8889V33ZM54.9301 20.6602L52.7035 24.3516C52.6098 24.0391 52.4887 23.6875 52.3403 23.2969C52.1918 22.9062 52.0082 22.543 51.7895 22.207C51.5707 21.8633 51.309 21.5781 51.0043 21.3516C50.6996 21.1172 50.3481 21 49.9496 21C49.5824 21 49.2621 21.0938 48.9887 21.2812C48.7231 21.4688 48.4965 21.7148 48.309 22.0195C48.1215 22.3164 47.9653 22.6562 47.8403 23.0391C47.7231 23.4141 47.6293 23.7969 47.559 24.1875C47.4965 24.5703 47.4535 24.9414 47.4301 25.3008C47.4067 25.6523 47.3949 25.957 47.3949 26.2148V33H43.4223V19.4648H44.9457L46.5512 22.6172C46.7699 22.1094 47.0199 21.6445 47.3012 21.2227C47.5824 20.793 47.9067 20.4258 48.2738 20.1211C48.641 19.8086 49.0551 19.5664 49.516 19.3945C49.9848 19.2227 50.5121 19.1367 51.0981 19.1367C51.4028 19.1367 51.7426 19.1641 52.1176 19.2188C52.4926 19.2656 52.8598 19.3516 53.2192 19.4766C53.5785 19.5938 53.9106 19.75 54.2153 19.9453C54.5199 20.1406 54.7582 20.3789 54.9301 20.6602ZM59.0924 26.5781C59.5768 26.6875 60.0612 26.7734 60.5455 26.8359C61.0299 26.8984 61.5182 26.9297 62.0104 26.9297C62.526 26.9297 63.0026 26.8828 63.4401 26.7891C63.8854 26.6875 64.2682 26.5234 64.5885 26.2969C64.9166 26.0625 65.1744 25.7539 65.3619 25.3711C65.5494 24.9883 65.6432 24.5117 65.6432 23.9414C65.6432 23.4805 65.5807 23.0586 65.4557 22.6758C65.3307 22.293 65.1432 21.9648 64.8932 21.6914C64.651 21.418 64.3502 21.207 63.9908 21.0586C63.6315 20.9023 63.2135 20.8242 62.7369 20.8242C62.2916 20.8242 61.8893 20.9062 61.5299 21.0703C61.1783 21.2344 60.8658 21.457 60.5924 21.7383C60.3268 22.0117 60.0963 22.332 59.901 22.6992C59.7135 23.0664 59.5573 23.4492 59.4323 23.8477C59.3073 24.2461 59.2174 24.6484 59.1627 25.0547C59.108 25.4609 59.0807 25.8438 59.0807 26.2031C59.0807 26.2656 59.0807 26.3281 59.0807 26.3906C59.0807 26.4531 59.0846 26.5156 59.0924 26.5781ZM68.8541 23.9062C68.8541 24.4609 68.7643 24.957 68.5846 25.3945C68.4049 25.8242 68.1588 26.2031 67.8463 26.5312C67.5416 26.8594 67.1862 27.1367 66.7799 27.3633C66.3737 27.5898 65.9401 27.7773 65.4791 27.9258C65.0182 28.0664 64.5416 28.168 64.0494 28.2305C63.5651 28.293 63.0924 28.3242 62.6315 28.3242C62.0455 28.3242 61.4674 28.2852 60.8971 28.207C60.3268 28.1211 59.7643 27.9883 59.2096 27.8086C59.2955 28.3242 59.4323 28.8164 59.6198 29.2852C59.8073 29.7461 60.0573 30.1523 60.3698 30.5039C60.6823 30.8477 61.0651 31.1211 61.5182 31.3242C61.9791 31.5273 62.5221 31.6289 63.1471 31.6289C63.5612 31.6289 63.9557 31.5664 64.3307 31.4414C64.7057 31.3164 65.0494 31.1406 65.3619 30.9141C65.6744 30.6875 65.9479 30.418 66.1823 30.1055C66.4244 29.793 66.6198 29.4453 66.7682 29.0625L68.4791 29.6953C68.2213 30.3125 67.8658 30.8477 67.4127 31.3008C66.9674 31.7461 66.4596 32.1172 65.8893 32.4141C65.3268 32.7031 64.7252 32.918 64.0846 33.0586C63.4518 33.1992 62.8229 33.2695 62.1979 33.2695C61.1666 33.2695 60.2135 33.0977 59.3385 32.7539C58.4635 32.4023 57.7096 31.9141 57.0768 31.2891C56.444 30.6641 55.9479 29.918 55.5885 29.0508C55.2291 28.1836 55.0494 27.2344 55.0494 26.2031C55.0494 25.1719 55.2291 24.2227 55.5885 23.3555C55.9479 22.4883 56.444 21.7422 57.0768 21.1172C57.7096 20.4922 58.4635 20.0078 59.3385 19.6641C60.2135 19.3125 61.1666 19.1367 62.1979 19.1367C62.6979 19.1367 63.2096 19.1719 63.733 19.2422C64.2565 19.3125 64.7643 19.4258 65.2565 19.582C65.7487 19.7305 66.2135 19.9258 66.651 20.168C67.0885 20.4102 67.4674 20.7109 67.7877 21.0703C68.1158 21.4219 68.3737 21.832 68.5612 22.3008C68.7565 22.7695 68.8541 23.3047 68.8541 23.9062ZM84.5477 33H80.5868V31.3828C80.118 32.0234 79.5516 32.5 78.8875 32.8125C78.2313 33.1172 77.5086 33.2695 76.7196 33.2695C75.6883 33.2695 74.7664 33.0859 73.9539 32.7188C73.1414 32.3516 72.4539 31.8516 71.8914 31.2188C71.3289 30.5781 70.8993 29.8281 70.6024 28.9688C70.3055 28.1094 70.1571 27.1875 70.1571 26.2031C70.1571 25.2188 70.3055 24.2969 70.6024 23.4375C70.8993 22.5781 71.3289 21.832 71.8914 21.1992C72.4539 20.5586 73.1414 20.0547 73.9539 19.6875C74.7664 19.3203 75.6883 19.1367 76.7196 19.1367C77.243 19.1367 77.7391 19.2148 78.2078 19.3711C78.6844 19.5273 79.118 19.75 79.5086 20.0391C79.9071 20.3203 80.2547 20.6641 80.5516 21.0703C80.8563 21.4688 81.0946 21.9141 81.2664 22.4062L83.0243 19.4648H84.5477V33ZM80.5633 26.2031C80.5633 25.8516 80.5438 25.4805 80.5047 25.0898C80.4735 24.6992 80.4149 24.3125 80.3289 23.9297C80.243 23.5469 80.1219 23.1836 79.9657 22.8398C79.8172 22.4883 79.6219 22.1797 79.3797 21.9141C79.1453 21.6406 78.8602 21.4258 78.5243 21.2695C78.1883 21.1133 77.7977 21.0352 77.3524 21.0352C76.9071 21.0352 76.5203 21.1172 76.1922 21.2812C75.8641 21.4375 75.5828 21.6523 75.3485 21.9258C75.1141 22.1914 74.9188 22.5 74.7625 22.8516C74.6141 23.2031 74.4969 23.5703 74.411 23.9531C74.325 24.3359 74.2625 24.7227 74.2235 25.1133C74.1922 25.4961 74.1766 25.8594 74.1766 26.2031C74.1766 26.5469 74.1922 26.9141 74.2235 27.3047C74.2625 27.6953 74.325 28.082 74.411 28.4648C74.4969 28.8477 74.6141 29.2148 74.7625 29.5664C74.9188 29.918 75.1141 30.2305 75.3485 30.5039C75.5828 30.7695 75.8641 30.9844 76.1922 31.1484C76.5203 31.3047 76.9071 31.3828 77.3524 31.3828C77.7586 31.3828 78.118 31.3008 78.4305 31.1367C78.7508 30.9648 79.0282 30.7383 79.2625 30.457C79.5047 30.1758 79.7078 29.8555 79.8719 29.4961C80.036 29.1367 80.1688 28.7656 80.2703 28.3828C80.3719 28 80.4461 27.6211 80.493 27.2461C80.5399 26.8633 80.5633 26.5156 80.5633 26.2031ZM108.397 25.1016C108.397 26.0312 108.288 27 108.069 28.0078C107.851 29.0156 107.542 30 107.144 30.9609C106.753 31.9141 106.28 32.8164 105.726 33.668C105.171 34.5195 104.554 35.2578 103.874 35.8828L102.386 35.0742C102.612 34.668 102.819 34.2109 103.007 33.7031C103.194 33.1953 103.366 32.6602 103.522 32.0977C103.679 31.5352 103.815 30.957 103.933 30.3633C104.05 29.7695 104.147 29.1797 104.226 28.5938C104.312 28 104.374 27.4258 104.413 26.8711C104.452 26.3164 104.472 25.7969 104.472 25.3125C104.472 25.0391 104.464 24.7422 104.448 24.4219C104.433 24.1016 104.397 23.7812 104.343 23.4609C104.296 23.1406 104.222 22.8359 104.12 22.5469C104.019 22.25 103.878 21.9883 103.698 21.7617C103.526 21.5273 103.308 21.3438 103.042 21.2109C102.784 21.0703 102.472 21 102.105 21C101.745 21 101.437 21.0977 101.179 21.293C100.929 21.4805 100.714 21.7266 100.534 22.0312C100.355 22.3359 100.21 22.6797 100.101 23.0625C99.9991 23.4453 99.9209 23.832 99.8662 24.2227C99.8116 24.6055 99.7725 24.9727 99.7491 25.3242C99.7334 25.6758 99.7256 25.9727 99.7256 26.2148V33H95.7764V26.6953C95.7764 26.4219 95.7803 26.0938 95.7881 25.7109C95.7959 25.3203 95.7842 24.9141 95.753 24.4922C95.7295 24.0703 95.6787 23.6523 95.6006 23.2383C95.5303 22.8164 95.4131 22.4414 95.2491 22.1133C95.0928 21.7852 94.878 21.5195 94.6045 21.3164C94.3311 21.1055 93.9873 21 93.5733 21C93.2217 21 92.9248 21.0977 92.6827 21.293C92.4483 21.4883 92.2491 21.7422 92.085 22.0547C91.9287 22.3594 91.8037 22.707 91.71 23.0977C91.6241 23.4805 91.5577 23.8672 91.5108 24.2578C91.4717 24.6406 91.4483 25.0078 91.4405 25.3594C91.4327 25.7031 91.4287 25.9883 91.4287 26.2148V33H87.4561V19.4648H88.9795L90.4327 22.6172C90.7608 21.5234 91.2764 20.6719 91.9795 20.0625C92.6905 19.4453 93.6319 19.1367 94.8037 19.1367C95.8584 19.1367 96.7334 19.3555 97.4287 19.793C98.1241 20.2305 98.6709 20.9414 99.0694 21.9258C99.2959 21.4961 99.5459 21.1094 99.8194 20.7656C100.101 20.4219 100.409 20.1289 100.745 19.8867C101.089 19.6445 101.468 19.4609 101.882 19.3359C102.296 19.2031 102.753 19.1367 103.253 19.1367C104.175 19.1367 104.96 19.2891 105.608 19.5938C106.265 19.8906 106.8 20.3047 107.214 20.8359C107.628 21.3672 107.929 22 108.116 22.7344C108.304 23.4609 108.397 24.25 108.397 25.1016ZM132.812 28.418C132.812 28.8945 132.734 29.3398 132.578 29.7539C132.421 30.168 132.206 30.5469 131.933 30.8906C131.66 31.2266 131.339 31.5273 130.972 31.793C130.613 32.0586 130.222 32.2812 129.8 32.4609C129.386 32.6406 128.956 32.7773 128.511 32.8711C128.066 32.957 127.628 33 127.199 33H117.273V16.125H126.343C126.742 16.125 127.16 16.1562 127.597 16.2188C128.035 16.2734 128.46 16.3633 128.874 16.4883C129.296 16.6133 129.695 16.7773 130.07 16.9805C130.453 17.1836 130.785 17.4336 131.066 17.7305C131.355 18.0195 131.581 18.3555 131.746 18.7383C131.917 19.1211 132.003 19.5586 132.003 20.0508C132.003 20.5195 131.91 20.9453 131.722 21.3281C131.535 21.7109 131.281 22.0547 130.96 22.3594C130.648 22.6562 130.285 22.9219 129.871 23.1562C129.464 23.3828 129.035 23.582 128.581 23.7539C129.152 23.9102 129.691 24.1172 130.199 24.375C130.714 24.6328 131.164 24.9492 131.546 25.3242C131.937 25.6992 132.246 26.1445 132.472 26.6602C132.699 27.168 132.812 27.7539 132.812 28.418ZM127.281 20.4609C127.281 19.5078 127.027 18.8125 126.519 18.375C126.019 17.9375 125.304 17.7188 124.374 17.7188H121.925V23.1914H123.976C124.398 23.1914 124.808 23.1406 125.206 23.0391C125.605 22.9297 125.956 22.7656 126.261 22.5469C126.574 22.3203 126.82 22.0352 126.999 21.6914C127.187 21.3477 127.281 20.9375 127.281 20.4609ZM128.101 28.125C128.101 27.6641 128.042 27.2344 127.925 26.8359C127.808 26.4297 127.628 26.082 127.386 25.793C127.144 25.4961 126.839 25.2656 126.472 25.1016C126.113 24.9297 125.687 24.8438 125.195 24.8438H121.925V31.3594H124.785C125.261 31.3594 125.703 31.2812 126.109 31.125C126.515 30.9688 126.867 30.75 127.164 30.4688C127.46 30.1875 127.691 29.8477 127.855 29.4492C128.019 29.0508 128.101 28.6094 128.101 28.125ZM148.424 33H144.463V31.3828C143.994 32.0234 143.427 32.5 142.763 32.8125C142.107 33.1172 141.384 33.2695 140.595 33.2695C139.564 33.2695 138.642 33.0859 137.83 32.7188C137.017 32.3516 136.33 31.8516 135.767 31.2188C135.205 30.5781 134.775 29.8281 134.478 28.9688C134.181 28.1094 134.033 27.1875 134.033 26.2031C134.033 25.2188 134.181 24.2969 134.478 23.4375C134.775 22.5781 135.205 21.832 135.767 21.1992C136.33 20.5586 137.017 20.0547 137.83 19.6875C138.642 19.3203 139.564 19.1367 140.595 19.1367C141.119 19.1367 141.615 19.2148 142.084 19.3711C142.56 19.5273 142.994 19.75 143.384 20.0391C143.783 20.3203 144.131 20.6641 144.427 21.0703C144.732 21.4688 144.97 21.9141 145.142 22.4062L146.9 19.4648H148.424V33ZM144.439 26.2031C144.439 25.8516 144.42 25.4805 144.381 25.0898C144.349 24.6992 144.291 24.3125 144.205 23.9297C144.119 23.5469 143.998 23.1836 143.841 22.8398C143.693 22.4883 143.498 22.1797 143.256 21.9141C143.021 21.6406 142.736 21.4258 142.4 21.2695C142.064 21.1133 141.674 21.0352 141.228 21.0352C140.783 21.0352 140.396 21.1172 140.068 21.2812C139.74 21.4375 139.459 21.6523 139.224 21.9258C138.99 22.1914 138.795 22.5 138.638 22.8516C138.49 23.2031 138.373 23.5703 138.287 23.9531C138.201 24.3359 138.138 24.7227 138.099 25.1133C138.068 25.4961 138.052 25.8594 138.052 26.2031C138.052 26.5469 138.068 26.9141 138.099 27.3047C138.138 27.6953 138.201 28.082 138.287 28.4648C138.373 28.8477 138.49 29.2148 138.638 29.5664C138.795 29.918 138.99 30.2305 139.224 30.5039C139.459 30.7695 139.74 30.9844 140.068 31.1484C140.396 31.3047 140.783 31.3828 141.228 31.3828C141.634 31.3828 141.994 31.3008 142.306 31.1367C142.627 30.9648 142.904 30.7383 143.138 30.457C143.381 30.1758 143.584 29.8555 143.748 29.4961C143.912 29.1367 144.045 28.7656 144.146 28.3828C144.248 28 144.322 27.6211 144.369 27.2461C144.416 26.8633 144.439 26.5156 144.439 26.2031ZM162.84 20.6602L160.613 24.3516C160.519 24.0391 160.398 23.6875 160.25 23.2969C160.101 22.9062 159.918 22.543 159.699 22.207C159.48 21.8633 159.219 21.5781 158.914 21.3516C158.609 21.1172 158.258 21 157.859 21C157.492 21 157.172 21.0938 156.898 21.2812C156.633 21.4688 156.406 21.7148 156.219 22.0195C156.031 22.3164 155.875 22.6562 155.75 23.0391C155.633 23.4141 155.539 23.7969 155.469 24.1875C155.406 24.5703 155.363 24.9414 155.34 25.3008C155.316 25.6523 155.305 25.957 155.305 26.2148V33H151.332V19.4648H152.855L154.461 22.6172C154.68 22.1094 154.93 21.6445 155.211 21.2227C155.492 20.793 155.816 20.4258 156.183 20.1211C156.551 19.8086 156.965 19.5664 157.426 19.3945C157.894 19.2227 158.422 19.1367 159.008 19.1367C159.312 19.1367 159.652 19.1641 160.027 19.2188C160.402 19.2656 160.769 19.3516 161.129 19.4766C161.488 19.5938 161.82 19.75 162.125 19.9453C162.43 20.1406 162.668 20.3789 162.84 20.6602ZM177.42 31.3711C177.42 32.4492 177.26 33.4648 176.94 34.418C176.619 35.3711 176.154 36.2031 175.545 36.9141C174.936 37.6328 174.186 38.1992 173.295 38.6133C172.412 39.0352 171.404 39.2461 170.272 39.2461C169.647 39.2461 169.014 39.1758 168.373 39.0352C167.74 38.8945 167.139 38.6758 166.568 38.3789C166.006 38.0898 165.498 37.7188 165.045 37.2656C164.6 36.8203 164.248 36.293 163.99 35.6836L165.701 35.0391C165.85 35.4219 166.041 35.7734 166.275 36.0938C166.518 36.4141 166.795 36.6875 167.107 36.9141C167.42 37.1484 167.764 37.3281 168.139 37.4531C168.514 37.5859 168.908 37.6523 169.322 37.6523C170.104 37.6523 170.756 37.4922 171.279 37.1719C171.811 36.8516 172.236 36.4336 172.557 35.918C172.877 35.4023 173.107 34.8164 173.248 34.1602C173.389 33.5117 173.459 32.8516 173.459 32.1797V31.3828C172.99 32.0234 172.424 32.5 171.76 32.8125C171.104 33.1172 170.381 33.2695 169.592 33.2695C168.561 33.2695 167.639 33.0859 166.826 32.7188C166.014 32.3516 165.326 31.8516 164.764 31.2188C164.201 30.5781 163.772 29.8281 163.475 28.9688C163.178 28.1094 163.029 27.1875 163.029 26.2031C163.029 25.2188 163.178 24.2969 163.475 23.4375C163.772 22.5781 164.201 21.832 164.764 21.1992C165.326 20.5586 166.014 20.0547 166.826 19.6875C167.639 19.3203 168.561 19.1367 169.592 19.1367C170.115 19.1367 170.611 19.2148 171.08 19.3711C171.557 19.5273 171.99 19.75 172.381 20.0391C172.779 20.3203 173.127 20.6641 173.424 21.0703C173.729 21.4688 173.967 21.9141 174.139 22.4062L175.897 19.4648H177.42V31.3711ZM173.436 26.2031C173.436 25.8516 173.416 25.4805 173.377 25.0898C173.346 24.6992 173.287 24.3125 173.201 23.9297C173.115 23.5469 172.994 23.1836 172.838 22.8398C172.69 22.4883 172.494 22.1797 172.252 21.9141C172.018 21.6406 171.732 21.4258 171.397 21.2695C171.061 21.1133 170.67 21.0352 170.225 21.0352C169.779 21.0352 169.393 21.1172 169.065 21.2812C168.736 21.4375 168.455 21.6523 168.221 21.9258C167.986 22.1914 167.791 22.5 167.635 22.8516C167.486 23.2031 167.369 23.5703 167.283 23.9531C167.197 24.3359 167.135 24.7227 167.096 25.1133C167.065 25.4961 167.049 25.8594 167.049 26.2031C167.049 26.5469 167.065 26.9141 167.096 27.3047C167.135 27.6953 167.197 28.082 167.283 28.4648C167.369 28.8477 167.486 29.2148 167.635 29.5664C167.791 29.918 167.986 30.2305 168.221 30.5039C168.455 30.7695 168.736 30.9844 169.065 31.1484C169.393 31.3047 169.779 31.3828 170.225 31.3828C170.631 31.3828 170.99 31.3008 171.303 31.1367C171.623 30.9648 171.9 30.7383 172.135 30.457C172.377 30.1758 172.58 29.8555 172.744 29.4961C172.908 29.1367 173.041 28.7656 173.143 28.3828C173.244 28 173.318 27.6211 173.365 27.2461C173.412 26.8633 173.436 26.5156 173.436 26.2031ZM193.957 33H189.996V31.3828C189.528 32.0234 188.961 32.5 188.297 32.8125C187.641 33.1172 186.918 33.2695 186.129 33.2695C185.098 33.2695 184.176 33.0859 183.364 32.7188C182.551 32.3516 181.864 31.8516 181.301 31.2188C180.739 30.5781 180.309 29.8281 180.012 28.9688C179.715 28.1094 179.567 27.1875 179.567 26.2031C179.567 25.2188 179.715 24.2969 180.012 23.4375C180.309 22.5781 180.739 21.832 181.301 21.1992C181.864 20.5586 182.551 20.0547 183.364 19.6875C184.176 19.3203 185.098 19.1367 186.129 19.1367C186.653 19.1367 187.149 19.2148 187.617 19.3711C188.094 19.5273 188.528 19.75 188.918 20.0391C189.317 20.3203 189.664 20.6641 189.961 21.0703C190.266 21.4688 190.504 21.9141 190.676 22.4062L192.434 19.4648H193.957V33ZM189.973 26.2031C189.973 25.8516 189.953 25.4805 189.914 25.0898C189.883 24.6992 189.824 24.3125 189.739 23.9297C189.653 23.5469 189.532 23.1836 189.375 22.8398C189.227 22.4883 189.032 22.1797 188.789 21.9141C188.555 21.6406 188.27 21.4258 187.934 21.2695C187.598 21.1133 187.207 21.0352 186.762 21.0352C186.317 21.0352 185.93 21.1172 185.602 21.2812C185.274 21.4375 184.992 21.6523 184.758 21.9258C184.524 22.1914 184.328 22.5 184.172 22.8516C184.024 23.2031 183.907 23.5703 183.821 23.9531C183.735 24.3359 183.672 24.7227 183.633 25.1133C183.602 25.4961 183.586 25.8594 183.586 26.2031C183.586 26.5469 183.602 26.9141 183.633 27.3047C183.672 27.6953 183.735 28.082 183.821 28.4648C183.907 28.8477 184.024 29.2148 184.172 29.5664C184.328 29.918 184.524 30.2305 184.758 30.5039C184.992 30.7695 185.274 30.9844 185.602 31.1484C185.93 31.3047 186.317 31.3828 186.762 31.3828C187.168 31.3828 187.528 31.3008 187.84 31.1367C188.16 30.9648 188.438 30.7383 188.672 30.457C188.914 30.1758 189.117 29.8555 189.282 29.4961C189.446 29.1367 189.578 28.7656 189.68 28.3828C189.782 28 189.856 27.6211 189.903 27.2461C189.949 26.8633 189.973 26.5156 189.973 26.2031ZM201.026 16.1953C201.026 16.4922 200.967 16.7734 200.85 17.0391C200.741 17.3047 200.588 17.5352 200.393 17.7305C200.198 17.9258 199.967 18.082 199.702 18.1992C199.436 18.3086 199.155 18.3633 198.858 18.3633C198.561 18.3633 198.28 18.3086 198.014 18.1992C197.756 18.082 197.53 17.9258 197.334 17.7305C197.139 17.5352 196.983 17.3047 196.866 17.0391C196.756 16.7734 196.702 16.4922 196.702 16.1953C196.702 15.8984 196.756 15.6211 196.866 15.3633C196.983 15.0977 197.139 14.8672 197.334 14.6719C197.53 14.4766 197.756 14.3242 198.014 14.2148C198.28 14.0977 198.561 14.0391 198.858 14.0391C199.155 14.0391 199.436 14.0977 199.702 14.2148C199.967 14.3242 200.198 14.4766 200.393 14.6719C200.588 14.8672 200.741 15.0977 200.85 15.3633C200.967 15.6211 201.026 15.8984 201.026 16.1953ZM200.85 33H196.877V19.4766H200.85V33ZM217.61 25.2422C217.61 26.1562 217.497 27.1094 217.27 28.1016C217.051 29.0938 216.743 30.0664 216.344 31.0195C215.946 31.9727 215.469 32.8672 214.915 33.7031C214.36 34.5469 213.751 35.2734 213.087 35.8828L211.598 35.0742C211.809 34.6836 212.008 34.2461 212.196 33.7617C212.383 33.2773 212.551 32.7656 212.7 32.2266C212.856 31.6797 212.993 31.1172 213.11 30.5391C213.235 29.9609 213.337 29.3906 213.415 28.8281C213.501 28.2578 213.563 27.707 213.602 27.1758C213.649 26.6367 213.673 26.1367 213.673 25.6758C213.673 25.3711 213.661 25.0469 213.637 24.7031C213.614 24.3516 213.563 24.0039 213.485 23.6602C213.415 23.3086 213.317 22.9727 213.192 22.6523C213.067 22.332 212.899 22.0508 212.688 21.8086C212.485 21.5664 212.235 21.3711 211.938 21.2227C211.649 21.0742 211.305 21 210.907 21C210.516 21 210.169 21.0898 209.864 21.2695C209.559 21.4414 209.29 21.6719 209.055 21.9609C208.821 22.2422 208.618 22.5664 208.446 22.9336C208.282 23.3008 208.145 23.6797 208.036 24.0703C207.934 24.4531 207.86 24.832 207.813 25.207C207.766 25.582 207.743 25.918 207.743 26.2148V33H203.77V19.4648H205.294L207.11 22.6172C207.329 22.0938 207.602 21.6172 207.93 21.1875C208.258 20.7578 208.63 20.3906 209.044 20.0859C209.458 19.7812 209.915 19.5469 210.415 19.3828C210.923 19.2188 211.469 19.1367 212.055 19.1367C212.993 19.1367 213.809 19.2891 214.505 19.5938C215.2 19.8984 215.778 20.3242 216.239 20.8711C216.7 21.4102 217.044 22.0547 217.27 22.8047C217.497 23.5469 217.61 24.3594 217.61 25.2422Z" fill="black"/>
</svg>
